<?xml version="1.0" standalone="no"?><!DOCTYPE svg PUBLIC "-//W3C//DTD SVG 1.1//EN" "http://www.w3.org/Graphics/SVG/1.1/DTD/svg11.dtd"><svg t="1661604064446" class="icon" viewBox="0 0 1024 1024" version="1.1" xmlns="http://www.w3.org/2000/svg" p-id="1233" xmlns:xlink="http://www.w3.org/1999/xlink" width="200" height="200"><path d="M725.333333 85.333333v149.333334a213.333333 213.333333 0 0 1-131.285333 196.906666l-196.906667 82.069334A298.666667 298.666667 0 0 0 213.333333 789.333333v149.333334h85.333334v-149.333334a213.333333 213.333333 0 0 1 131.285333-196.906666l196.906667-82.069334A298.666667 298.666667 0 0 0 810.666667 234.666667V85.333333h-85.333334z" fill="#58C4DD" p-id="1234" data-spm-anchor-id="a313x.7781069.0.i3" class=""></path><path d="M384 213.333333h256v85.333334H384v-85.333334zM384 725.333333h256v85.333334H384v-85.333334z" fill="#F0AC5F" p-id="1235" data-spm-anchor-id="a313x.7781069.0.i2" class=""></path><path d="M298.666667 128V85.333333h-85.333334v149.333334c0 96.96 46.890667 186.282667 123.136 241.664l61.418667-61.397334A213.354667 213.354667 0 0 1 298.666667 234.666667V128z m388.864 419.669333l-61.418667 61.397334A213.354667 213.354667 0 0 1 725.333333 789.333333v149.333334h85.333334v-149.333334c0-96.96-46.890667-186.282667-123.136-241.664z" fill="#FC6255" p-id="1236" data-spm-anchor-id="a313x.7781069.0.i0" class=""></path></svg>