<?xml version="1.0" encoding="UTF-8" standalone="yes"?>
<svg xmlns="http://www.w3.org/2000/svg" height="452" width="452">
<script type="text/ecmascript">
      <![CDATA[
        var shown = 1;
        function click() {
             var seq = document.getElementById("seq");
             if (shown==1) {
               seq.setAttribute("style", "visibility: hidden");
               shown = 0;
             } else {
               seq.setAttribute("style", "visibility: visible");
               shown = 1;
             }
         }
        ]]>
</script>
  <rect style="stroke: white; fill: white" height="452" x="0" y="0" width="452" onclick="click(evt)" />
  <g transform="scale(0.256760,0.256760) translate(499.331543,706.105713)">
    <polyline style="stroke: black; fill: none; stroke-width: 1.5" id="outline" points="
      120.970,142.512
      120.611,157.508
      120.251,172.503
      112.754,172.323
      111.604,157.368
      121.614,145.432
      120.235,130.281
      108.795,120.812
      120.094,110.002
      121.750,94.453
      112.981,81.506
      97.927,77.274
      83.696,83.756
      77.008,97.891
      81.020,113.005
      93.839,121.962
      83.980,133.068
      84.933,148.251
      96.648,158.517
      97.798,173.473
      73.805,192.225
      63.440,215.817
      50.815,207.716
      38.190,199.616
      25.566,191.516
      12.941,183.415
      0.316,175.315
      -12.308,167.214
      -24.933,159.114
      -37.558,151.013
      -50.182,142.913
      -50.968,120.162
      -76.968,106.454
      -88.046,96.342
      -99.125,86.229
      -110.203,76.116
      -121.282,66.004
      -132.360,55.891
      -143.422,45.760
      -154.469,35.612
      -149.672,25.755
      -149.554,13.721
      -155.016,1.803
      -165.832,-7.383
      -180.553,-11.449
      -190.541,-22.640
      -200.530,-33.830
      -203.849,-42.200
      -210.568,-45.041
      -220.591,-56.200
      -230.615,-67.359
      -215.686,-86.520
      -216.667,-116.173
      -239.484,-142.906
      -244.874,-156.904
      -241.792,-173.011
      -254.375,-183.528
      -269.679,-177.635
      -271.960,-161.396
      -258.872,-151.515
      -253.482,-137.516
      -259.884,-133.608
      -267.700,-146.411
      -275.516,-159.214
      -288.318,-151.397
      -280.502,-138.595
      -272.686,-125.792
      -279.088,-121.884
      -289.076,-133.075
      -299.064,-144.266
      -290.428,-153.006
      -284.192,-164.486
      -281.206,-178.005
      -282.103,-192.605
      -287.227,-207.141
      -296.579,-220.367
      -309.790,-231.043
      -326.128,-238.043
      -334.449,-250.523
      -335.667,-266.297
      -349.165,-272.595
      -357.486,-285.075
      -353.352,-297.813
      -357.214,-310.434
      -367.462,-318.440
      -380.255,-319.111
      -388.616,-331.565
      -396.977,-344.019
      -391.512,-358.542
      -395.660,-373.494
      -407.825,-383.127
      -423.330,-383.735
      -436.213,-375.086
      -441.520,-360.505
      -437.211,-345.598
      -424.942,-336.098
      -409.431,-335.658
      -401.070,-323.204
      -392.709,-310.750
      -396.632,-294.338
      -387.234,-279.915
      -369.967,-276.754
      -361.646,-264.273
      -361.023,-249.392
      -346.930,-242.202
      -338.609,-229.722
      -344.376,-224.927
      -353.965,-236.462
      -365.500,-226.873
      -355.911,-215.339
      -361.679,-210.544
      -372.428,-221.006
      -383.178,-231.467
      -393.911,-241.946
      -404.627,-252.442
      -397.883,-265.984
      -395.656,-280.947
      -398.164,-295.865
      -405.160,-309.278
      -415.961,-319.871
      -429.507,-326.606
      -444.472,-328.823
      -459.389,-326.305
      -472.797,-319.299
      -483.382,-308.492
      -490.108,-294.941
      -492.315,-279.975
      -489.787,-265.060
      -482.773,-251.656
      -471.958,-241.078
      -458.403,-234.362
      -443.435,-232.164
      -428.522,-234.702
      -415.123,-241.726
      -404.407,-231.230
      -401.859,-224.395
      -393.640,-220.718
      -382.890,-210.256
      -372.140,-199.795
      -376.944,-194.035
      -388.464,-203.642
      -399.983,-213.249
      -409.590,-201.729
      -398.071,-192.122
      -386.551,-182.515
      -391.354,-176.755
      -403.576,-185.451
      -412.977,-199.560
      -429.137,-194.433
      -428.684,-177.485
      -412.273,-173.229
      -400.051,-164.533
      -390.456,-144.371
      -375.485,-129.642
      -357.567,-121.504
      -339.257,-120.154
      -322.883,-124.889
      -310.255,-134.278
      -300.267,-123.087
      -290.279,-111.896
      -294.943,-106.023
      -309.780,-108.228
      -304.271,-94.276
      -308.935,-88.403
      -322.098,-95.596
      -330.161,-109.876
      -346.560,-109.763
      -354.424,-95.372
      -345.664,-81.509
      -329.291,-82.434
      -316.129,-75.240
      -307.629,-61.552
      -296.366,-51.527
      -283.639,-45.581
      -270.748,-43.718
      -258.880,-45.557
      -249.000,-50.403
      -241.774,-57.335
      -231.750,-46.176
      -221.727,-35.017
      -211.720,-23.842
      -201.732,-12.651
      -191.744,-1.461
      -195.683,4.922
      -208.448,-2.955
      -221.213,-10.833
      -233.978,-18.710
      -241.855,-5.944
      -229.090,1.933
      -216.325,9.810
      -203.560,17.687
      -207.499,24.070
      -221.980,20.160
      -236.462,16.251
      -250.944,12.342
      -255.727,2.753
      -264.775,-2.572
      -275.045,-2.118
      -283.232,3.731
      -297.738,-0.086
      -312.245,-3.903
      -326.751,-7.719
      -341.257,-11.536
      -352.519,-23.457
      -368.409,-19.403
      -372.581,-3.543
      -360.744,7.806
      -345.074,2.970
      -330.568,6.787
      -316.061,10.604
      -301.555,14.420
      -287.049,18.237
      -274.197,32.780
      -254.853,26.823
      -240.371,30.733
      -225.890,34.642
      -211.408,38.551
      -187.039,54.436
      -164.617,46.658
      -153.570,56.807
      -150.805,63.557
      -142.473,66.969
      -131.394,77.082
      -120.316,87.195
      -109.237,97.307
      -98.159,107.420
      -87.080,117.533
      -89.528,124.622
      -103.707,119.728
      -115.679,110.692
      -127.973,119.286
      -123.598,133.634
      -108.601,133.907
      -94.422,138.802
      -96.869,145.891
      -111.827,147.017
      -126.785,148.142
      -141.742,149.268
      -156.700,150.393
      -171.679,151.184
      -186.672,151.639
      -201.665,152.094
      -207.257,138.005
      -217.332,126.680
      -230.675,119.486
      -245.674,117.293
      -260.517,120.365
      -273.414,128.331
      -282.805,140.230
      -287.558,154.624
      -287.098,169.775
      -281.480,183.854
      -271.384,195.161
      -258.028,202.330
      -243.025,204.495
      -228.187,201.396
      -215.306,193.406
      -205.936,181.490
      -201.210,167.087
      -186.217,166.632
      -171.224,166.177
      -184.709,172.745
      -194.668,183.962
      -199.591,198.131
      -198.733,213.107
      -192.225,226.621
      -181.052,236.629
      -166.905,241.615
      -151.926,240.824
      -138.382,234.376
      -128.325,223.247
      -123.277,209.122
      -124.002,194.139
      -130.390,180.567
      -141.474,170.461
      -155.574,165.351
      -140.617,164.225
      -125.659,163.100
      -110.701,161.974
      -95.744,160.849
      -73.165,165.947
      -58.283,155.538
      -45.658,163.638
      -33.034,171.738
      -20.409,179.839
      -7.784,187.939
      4.841,196.040
      17.465,204.140
      30.090,212.241
      42.715,220.341
      55.339,228.442
      52.198,238.217
      51.170,248.433
      52.301,258.639
      55.541,268.382
      60.747,277.232
      67.689,284.798
      59.609,297.436
      51.528,310.074
      43.448,322.711
      39.313,312.520
      31.276,303.593
      19.753,297.065
      5.452,293.939
      -10.667,295.021
      -27.443,300.856
      -43.582,311.685
      -54.365,322.112
      -65.148,332.540
      -75.931,342.967
      -91.844,338.259
      -107.859,342.233
      -119.591,353.701
      -123.877,369.439
      -119.630,385.091
      -131.523,376.663
      -144.758,370.563
      -158.883,366.998
      -173.419,366.087
      -187.871,367.860
      -201.747,372.254
      -214.578,379.120
      -225.926,388.223
      -235.408,399.251
      -242.701,411.829
      -247.560,425.528
      -249.821,439.882
      -249.408,454.404
      -246.336,468.599
      -240.712,481.984
      -232.729,494.106
      -243.512,504.533
      -254.295,514.961
      -265.078,525.388
      -275.861,535.815
      -286.644,546.242
      -297.427,556.669
      -306.878,551.023
      -318.821,549.620
      -331.279,553.494
      -341.881,562.744
      -348.304,576.406
      -363.349,573.098
      -377.294,579.211
      -384.876,592.210
      -383.368,607.004
      -398.853,610.248
      -403.356,624.446
      -414.657,634.308
      -432.149,632.833
      -445.000,644.287
      -445.517,661.154
      -456.851,670.980
      -471.934,667.339
      -486.265,673.290
      -494.332,686.545
      -493.033,702.008
      -482.868,713.732
      -467.745,717.209
      -453.480,711.103
      -445.558,697.761
      -447.024,682.313
      -435.691,672.487
      -423.169,675.193
      -411.180,670.154
      -404.145,658.987
      -404.795,645.610
      -393.493,635.748
      -378.816,633.210
      -373.506,618.306
      -359.052,621.804
      -345.146,616.052
      -337.201,603.063
      -338.441,587.708
      -332.967,592.835
      -343.221,603.783
      -353.474,614.732
      -363.728,625.680
      -373.981,636.628
      -384.235,647.577
      -373.286,657.830
      -363.033,646.882
      -352.779,635.933
      -342.526,624.985
      -332.272,614.037
      -322.019,603.088
      -316.545,608.215
      -331.880,614.026
      -334.247,630.254
      -321.212,640.204
      -306.183,633.641
      -304.621,617.316
      -285.926,603.646
      -280.271,583.957
      -287.000,567.452
      -276.217,557.025
      -265.434,546.598
      -254.651,536.171
      -243.868,525.744
      -233.085,515.317
      -222.302,504.889
      -209.641,513.738
      -195.492,519.946
      -180.399,523.273
      -164.942,523.589
      -149.716,520.879
      -135.308,515.247
      -122.273,506.907
      -111.115,496.180
      -102.263,483.476
      -96.060,469.284
      -92.748,454.149
      -92.454,438.654
      -95.192,423.396
      -100.859,408.961
      -109.238,395.907
      -96.467,400.549
      -82.873,399.257
      -71.092,392.224
      -63.432,380.761
      -61.421,367.056
      -65.504,353.750
      -54.721,343.323
      -43.938,332.896
      -33.155,322.468
      -26.692,326.274
      -34.302,339.200
      -21.376,346.810
      -13.766,333.884
      -7.303,337.689
      -11.189,352.177
      -15.075,366.665
      -26.124,377.989
      -21.948,392.287
      -25.834,406.775
      -29.341,410.295
      -31.058,414.386
      -31.058,418.301
      -29.687,421.420
      -33.434,435.944
      -47.715,441.721
      -55.762,454.648
      -54.667,469.656
      -45.059,481.007
      -48.807,495.531
      -52.554,510.056
      -56.301,524.580
      -70.983,529.317
      -80.756,541.253
      -82.502,556.582
      -75.662,570.410
      -62.421,578.326
      -47.002,577.804
      -34.327,569.010
      -28.439,554.750
      -31.218,539.575
      -41.776,528.327
      -38.029,513.803
      -34.282,499.278
      -30.535,484.754
      -16.636,479.468
      -8.417,466.862
      -9.206,451.656
      -18.910,439.691
      -15.163,425.167
      -11.346,410.661
      -7.460,396.173
      3.311,385.885
      -0.587,370.551
      3.299,356.063
      7.185,341.575
      14.625,342.520
      12.737,357.400
      10.848,372.281
      8.960,387.162
      7.071,402.042
      21.952,403.930
      23.840,389.050
      25.729,374.170
      27.617,359.289
      29.506,344.408
      36.946,345.353
      37.090,360.352
      37.234,375.351
      37.378,390.350
      37.522,405.350
      23.652,411.639
      13.544,423.029
      8.949,437.549
      10.664,452.681
      18.390,465.804
      30.790,474.645
      45.715,477.671
      60.580,474.359
      72.808,465.282
      80.282,452.013
      81.705,436.851
      76.833,422.423
      66.509,411.228
      52.521,405.206
      52.377,390.207
      52.233,375.207
      52.089,360.208
      51.946,345.209
      56.086,330.791
      64.166,318.154
      72.246,305.516
      80.327,292.879
      130.665,301.828
      174.231,256.948
      177.371,271.615
      180.512,286.283
      170.253,293.893
      163.621,304.754
      161.554,317.264
      164.318,329.592
      171.476,339.945
      181.956,346.833
      194.208,349.280
      197.443,363.927
      200.677,378.574
      203.911,393.221
      195.198,406.407
      198.442,421.875
      211.719,430.448
      227.152,427.040
      235.584,413.673
      232.013,398.278
      218.558,389.987
      215.324,375.340
      212.090,360.693
      208.855,346.046
      222.020,334.789
      227.626,318.306
      224.016,301.181
      212.112,288.231
      195.179,283.142
      192.039,268.475
      188.898,253.807
      194.146,248.449
      203.934,259.815
      208.892,273.972
      223.534,277.232
      234.029,266.516
      230.466,251.945
      216.209,247.283
      204.642,237.733
      209.890,232.375
      224.620,235.210
      239.345,238.069
      254.065,240.951
      261.767,245.615
      268.837,243.819
      283.567,246.654
      298.296,249.489
      313.026,252.324
      327.756,255.160
      342.485,257.995
      357.215,260.830
      371.945,263.665
      374.260,284.544
      383.549,303.363
      398.684,317.872
      417.842,326.342
      438.720,327.768
      458.813,321.995
      475.716,309.726
      487.411,292.445
      501.746,296.861
      516.081,301.277
      530.416,305.693
      544.752,310.109
      529.766,333.231
      537.767,368.409
      574.308,396.585
      587.628,403.483
      600.948,410.380
      614.268,417.277
      627.588,424.174
      640.909,431.072
      654.229,437.969
      667.549,444.866
      680.858,451.785
      694.156,458.724
      691.433,468.235
      693.377,479.327
      700.684,489.653
      712.879,496.632
      715.302,512.266
      729.243,517.511
      738.496,529.317
      734.112,544.202
      739.347,558.809
      752.187,567.522
      767.695,566.991
      779.908,557.419
      784.130,542.487
      778.737,527.937
      765.803,519.364
      750.302,520.064
      741.049,508.258
      739.288,493.468
      724.685,487.379
      729.236,481.417
      741.159,490.518
      753.083,499.620
      765.006,508.721
      774.107,496.797
      762.184,487.696
      750.261,478.595
      738.337,469.494
      742.888,463.532
      756.716,469.344
      770.544,475.156
      784.372,480.969
      798.201,486.781
      812.029,492.593
      825.857,498.405
      825.093,507.467
      826.426,516.449
      829.779,524.873
      834.966,532.291
      841.707,538.313
      849.638,542.621
      858.331,544.991
      867.323,545.303
      876.133,543.547
      884.292,539.823
      891.369,534.334
      896.989,527.380
      910.944,532.881
      917.674,538.863
      924.952,538.378
      938.924,543.834
      943.210,548.597
      948.459,550.317
      953.003,549.281
      967.010,554.648
      981.017,560.016
      995.024,565.383
      1009.005,570.817
      1022.960,576.319
      1036.915,581.820
      1050.860,587.344
      1064.798,592.890
      1078.735,598.435
      1077.629,613.667
      1083.555,628.743
      1096.086,640.422
      1113.312,645.843
      1132.116,643.196
      1145.587,649.793
      1159.058,656.391
      1156.945,668.181
      1161.287,681.019
      1172.383,691.320
      1188.569,695.576
      1201.889,702.473
      1215.209,709.370
      1219.755,724.507
      1233.712,731.922
      1248.799,727.216
      1256.066,713.182
      1251.201,698.145
      1237.091,691.027
      1222.106,696.050
      1208.786,689.153
      1195.466,682.256
      1198.678,675.478
      1205.103,661.924
      1208.316,655.147
      1217.666,668.619
      1233.984,666.988
      1240.483,651.932
      1230.477,638.939
      1214.260,641.375
      1195.928,630.113
      1177.278,631.940
      1165.656,642.920
      1152.185,636.322
      1138.714,629.725
      1141.364,622.708
      1155.396,628.009
      1170.199,625.582
      1160.696,613.976
      1146.664,608.676
      1149.314,601.660
      1163.783,605.615
      1165.656,620.700
      1173.164,633.918
      1185.161,643.252
      1199.819,647.280
      1214.901,645.387
      1228.109,637.862
      1237.427,625.852
      1241.436,611.190
      1239.523,596.109
      1231.981,582.912
      1219.959,573.609
      1205.291,569.620
      1190.213,571.552
      1177.025,579.112
      1167.738,591.146
      1153.269,587.191
      1143.519,574.911
      1130.578,567.242
      1116.379,564.808
      1102.874,567.489
      1091.762,574.488
      1084.281,584.498
      1070.344,578.952
      1056.406,573.406
      1051.417,568.085
      1042.416,567.865
      1028.461,562.364
      1014.506,556.862
      1012.788,553.921
      1009.620,551.620
      1005.301,550.606
      1000.391,551.376
      986.385,546.009
      972.378,540.641
      958.371,535.274
      944.381,529.862
      930.409,524.405
      916.445,518.926
      902.491,513.425
      900.689,492.581
      888.271,475.647
      868.788,467.604
      847.887,470.872
      831.669,484.577
      817.841,478.765
      804.013,472.952
      790.185,467.140
      776.356,461.328
      762.528,455.516
      748.700,449.704
      722.313,433.831
      701.096,445.426
      687.798,438.487
      683.378,432.683
      674.446,431.546
      661.126,424.649
      647.806,417.751
      634.486,410.854
      621.165,403.957
      607.845,397.060
      594.525,390.162
      581.205,383.265
      582.398,375.861
      595.745,382.707
      606.380,372.129
      599.606,358.745
      584.785,361.052
      585.978,353.647
      600.791,351.284
      615.604,348.921
      630.416,346.558
      645.229,344.195
      661.823,347.670
      669.756,332.687
      657.555,320.916
      642.866,329.382
      628.053,331.745
      613.241,334.108
      598.428,336.471
      583.615,338.835
      581.823,331.552
      596.389,327.967
      610.954,324.383
      625.519,320.799
      636.342,310.412
      621.935,306.233
      607.370,309.818
      592.804,313.402
      578.239,316.986
      576.447,309.704
      590.664,304.923
      604.882,300.142
      619.100,295.361
      633.317,290.580
      647.535,285.799
      659.513,295.522
      674.848,297.203
      688.648,290.306
      696.509,277.032
      695.922,261.616
      687.075,248.977
      672.791,243.149
      657.627,245.991
      646.423,256.597
      642.754,271.581
      628.536,276.362
      614.319,281.143
      600.101,285.924
      585.883,290.705
      571.666,295.486
      583.649,286.464
      589.816,272.790
      588.645,257.836
      580.425,245.289
      567.183,238.243
      552.184,238.435
      539.127,245.818
      531.231,258.571
      530.443,273.551
      536.958,287.062
      549.167,295.774
      534.832,291.358
      520.497,286.942
      506.162,282.526
      491.826,278.110
      492.605,271.652
      492.682,265.147
      492.057,258.672
      490.738,252.302
      488.739,246.111
      486.085,240.172
      498.471,231.712
      510.858,223.252
      523.244,214.792
      535.631,206.331
      548.017,197.871
      560.404,189.411
      573.891,196.647
      589.196,196.774
      602.802,189.764
      611.582,177.227
      613.518,162.045
      608.167,147.706
      596.757,137.504
      581.910,133.785
      567.038,137.403
      555.559,147.527
      550.110,161.829
      551.943,177.025
      539.557,185.485
      527.170,193.945
      514.784,202.405
      502.397,210.865
      490.011,219.325
      477.624,227.786
      469.999,220.498
      461.214,214.649
      451.537,210.418
      441.264,207.939
      430.710,207.288
      420.197,208.489
      410.048,211.507
      400.574,216.251
      392.068,222.579
      384.791,230.298
      378.968,239.174
      374.780,248.936
      360.050,246.100
      345.320,243.265
      330.591,240.430
      315.861,237.595
      301.132,234.760
      286.402,231.924
      271.672,229.089
      256.947,226.230
      242.227,223.348
      236.342,219.037
      227.455,220.480
      212.725,217.645
      209.448,210.899
      223.734,206.325
      238.019,201.752
      252.305,197.178
      267.258,198.368
      279.454,189.636
      283.144,175.097
      276.589,161.605
      262.878,155.520
      248.475,159.710
      240.170,172.199
      227.744,180.601
      215.319,189.004
      202.893,197.407
      199.616,190.661
      206.492,177.330
      213.368,163.998
      226.571,155.280
      225.528,140.422
      232.404,127.091
      245.607,118.373
      244.564,103.515
      257.767,94.797
      256.724,79.939
      263.600,66.607
      270.476,53.276
      285.501,55.142
      300.230,51.761
      312.890,43.560
      321.963,31.545
      326.369,17.178
      325.596,2.199
      319.755,-11.586
      309.571,-22.520
      322.715,-25.085
      331.878,-34.585
      333.906,-47.431
      328.286,-58.943
      343.568,-62.257
      353.104,-74.651
      352.390,-90.272
      341.765,-101.745
      326.244,-103.653
      313.156,-95.094
      308.682,-80.110
      314.933,-65.776
      298.678,-61.244
      290.627,-46.028
      296.239,-29.396
      281.426,-31.355
      266.808,-28.123
      254.155,-20.069
      245.003,-8.149
      240.474,6.209
      241.131,21.278
      246.915,35.240
      257.145,46.400
      250.269,59.732
      243.393,73.063
      230.683,80.827
      231.233,96.639
      218.522,104.403
      219.073,120.215
      212.197,133.546
      199.486,141.311
      200.037,157.122
      193.161,170.454
      186.285,183.785
      179.121,181.565
      183.560,167.237
      187.998,152.909
      192.437,138.581
      196.876,124.253
      201.315,109.924
      205.753,95.596
      210.192,81.268
      195.864,76.830
      191.425,91.157
      186.986,105.486
      182.548,119.814
      178.109,134.142
      173.670,148.470
      169.231,162.798
      164.793,177.127
      157.629,174.907
      159.493,160.024
      161.358,145.140
      163.223,130.256
      165.088,115.373
      166.952,100.489
      168.817,85.605
      170.682,70.722
      172.547,55.838
      174.412,40.955
      184.739,28.216
      178.619,13.002
      162.347,10.963
      152.662,24.197
      159.528,39.090
      157.663,53.973
      155.798,68.857
      153.934,83.741
      152.069,98.624
      150.204,113.508
      148.339,128.392
      146.474,143.275
      144.610,158.159
      142.745,173.043
      135.247,172.863
      135.607,157.867
      135.966,142.871
      136.326,127.876
      136.685,112.880
      129.499,99.713
      121.689,112.520
    " />
    <g style="stroke: black; stroke-width: 1" id="pairs">
      <line id="4,20" x1="112.754" y1="172.323" x2="97.798" y2="173.473" />
      <line id="5,19" x1="111.604" y1="157.368" x2="96.648" y2="158.517" />
      <line id="8,16" x1="108.795" y1="120.812" x2="93.839" y2="121.962" />
      <line id="22,291" x1="63.440" y1="215.817" x2="55.339" y2="228.442" />
      <line id="23,290" x1="50.815" y1="207.716" x2="42.715" y2="220.341" />
      <line id="24,289" x1="38.190" y1="199.616" x2="30.090" y2="212.241" />
      <line id="25,288" x1="25.566" y1="191.516" x2="17.465" y2="204.140" />
      <line id="26,287" x1="12.941" y1="183.415" x2=" 4.841" y2="196.040" />
      <line id="27,286" x1=" 0.316" y1="175.315" x2="-7.784" y2="187.939" />
      <line id="28,285" x1="-12.308" y1="167.214" x2="-20.409" y2="179.839" />
      <line id="29,284" x1="-24.933" y1="159.114" x2="-33.034" y2="171.738" />
      <line id="30,283" x1="-37.558" y1="151.013" x2="-45.658" y2="163.638" />
      <line id="31,282" x1="-50.182" y1="142.913" x2="-58.283" y2="155.538" />
      <line id="33,227" x1="-76.968" y1="106.454" x2="-87.080" y2="117.533" />
      <line id="34,226" x1="-88.046" y1="96.342" x2="-98.159" y2="107.420" />
      <line id="35,225" x1="-99.125" y1="86.229" x2="-109.237" y2="97.307" />
      <line id="36,224" x1="-110.203" y1="76.116" x2="-120.316" y2="87.195" />
      <line id="37,223" x1="-121.282" y1="66.004" x2="-131.394" y2="77.082" />
      <line id="38,222" x1="-132.360" y1="55.891" x2="-142.473" y2="66.969" />
      <line id="39,220" x1="-143.422" y1="45.760" x2="-153.570" y2="56.807" />
      <line id="40,219" x1="-154.469" y1="35.612" x2="-164.617" y2="46.658" />
      <line id="45,183" x1="-180.553" y1="-11.449" x2="-191.744" y2="-1.461" />
      <line id="46,182" x1="-190.541" y1="-22.640" x2="-201.732" y2="-12.651" />
      <line id="47,181" x1="-200.530" y1="-33.830" x2="-211.720" y2="-23.842" />
      <line id="49,180" x1="-210.568" y1="-45.041" x2="-221.727" y2="-35.017" />
      <line id="50,179" x1="-220.591" y1="-56.200" x2="-231.750" y2="-46.176" />
      <line id="51,178" x1="-230.615" y1="-67.359" x2="-241.774" y2="-57.335" />
      <line id="54,61" x1="-239.484" y1="-142.906" x2="-253.482" y2="-137.516" />
      <line id="55,60" x1="-244.874" y1="-156.904" x2="-258.872" y2="-151.515" />
      <line id="68,160" x1="-279.088" y1="-121.884" x2="-290.279" y2="-111.896" />
      <line id="69,159" x1="-289.076" y1="-133.075" x2="-300.267" y2="-123.087" />
      <line id="70,158" x1="-299.064" y1="-144.266" x2="-310.255" y2="-134.278" />
      <line id="78,106" x1="-326.128" y1="-238.043" x2="-338.609" y2="-229.722" />
      <line id="79,105" x1="-334.449" y1="-250.523" x2="-346.930" y2="-242.202" />
      <line id="81,103" x1="-349.165" y1="-272.595" x2="-361.646" y2="-264.273" />
      <line id="82,102" x1="-357.486" y1="-285.075" x2="-369.967" y2="-276.754" />
      <line id="86,99" x1="-380.255" y1="-319.111" x2="-392.709" y2="-310.750" />
      <line id="87,98" x1="-388.616" y1="-331.565" x2="-401.070" y2="-323.204" />
      <line id="88,97" x1="-396.977" y1="-344.019" x2="-409.431" y2="-335.658" />
      <line id="111,139" x1="-361.679" y1="-210.544" x2="-372.140" y2="-199.795" />
      <line id="112,138" x1="-372.428" y1="-221.006" x2="-382.890" y2="-210.256" />
      <line id="113,137" x1="-383.178" y1="-231.467" x2="-393.640" y2="-220.718" />
      <line id="114,135" x1="-393.911" y1="-241.946" x2="-404.407" y2="-231.230" />
      <line id="115,134" x1="-404.627" y1="-252.442" x2="-415.123" y2="-241.726" />
      <line id="146,152" x1="-391.354" y1="-176.755" x2="-400.051" y2="-164.533" />
      <line id="147,151" x1="-403.576" y1="-185.451" x2="-412.273" y2="-173.229" />
      <line id="164,171" x1="-308.935" y1="-88.403" x2="-316.129" y2="-75.240" />
      <line id="165,170" x1="-322.098" y1="-95.596" x2="-329.291" y2="-82.434" />
      <line id="192,217" x1="-207.499" y1="24.070" x2="-211.408" y2="38.551" />
      <line id="193,216" x1="-221.980" y1="20.160" x2="-225.890" y2="34.642" />
      <line id="194,215" x1="-236.462" y1="16.251" x2="-240.371" y2="30.733" />
      <line id="195,214" x1="-250.944" y1="12.342" x2="-254.853" y2="26.823" />
      <line id="199,212" x1="-283.232" y1=" 3.731" x2="-287.049" y2="18.237" />
      <line id="200,211" x1="-297.738" y1="-0.086" x2="-301.555" y2="14.420" />
      <line id="201,210" x1="-312.245" y1="-3.903" x2="-316.061" y2="10.604" />
      <line id="202,209" x1="-326.751" y1="-7.719" x2="-330.568" y2=" 6.787" />
      <line id="203,208" x1="-341.257" y1="-11.536" x2="-345.074" y2=" 2.970" />
      <line id="235,280" x1="-96.869" y1="145.891" x2="-95.744" y2="160.849" />
      <line id="236,279" x1="-111.827" y1="147.017" x2="-110.701" y2="161.974" />
      <line id="237,278" x1="-126.785" y1="148.142" x2="-125.659" y2="163.100" />
      <line id="238,277" x1="-141.742" y1="149.268" x2="-140.617" y2="164.225" />
      <line id="239,276" x1="-156.700" y1="150.393" x2="-155.574" y2="165.351" />
      <line id="240,261" x1="-171.679" y1="151.184" x2="-171.224" y2="166.177" />
      <line id="241,260" x1="-186.672" y1="151.639" x2="-186.217" y2="166.632" />
      <line id="242,259" x1="-201.665" y1="152.094" x2="-201.210" y2="167.087" />
      <line id="297,508" x1="67.689" y1="284.798" x2="80.327" y2="292.879" />
      <line id="298,507" x1="59.609" y1="297.436" x2="72.246" y2="305.516" />
      <line id="299,506" x1="51.528" y1="310.074" x2="64.166" y2="318.154" />
      <line id="300,505" x1="43.448" y1="322.711" x2="56.086" y2="330.791" />
      <line id="307,425" x1="-43.582" y1="311.685" x2="-33.155" y2="322.468" />
      <line id="308,424" x1="-54.365" y1="322.112" x2="-43.938" y2="332.896" />
      <line id="309,423" x1="-65.148" y1="332.540" x2="-54.721" y2="343.323" />
      <line id="310,422" x1="-75.931" y1="342.967" x2="-65.504" y2="353.750" />
      <line id="315,416" x1="-119.630" y1="385.091" x2="-109.238" y2="395.907" />
      <line id="331,401" x1="-232.729" y1="494.106" x2="-222.302" y2="504.889" />
      <line id="332,400" x1="-243.512" y1="504.533" x2="-233.085" y2="515.317" />
      <line id="333,399" x1="-254.295" y1="514.961" x2="-243.868" y2="525.744" />
      <line id="334,398" x1="-265.078" y1="525.388" x2="-254.651" y2="536.171" />
      <line id="335,397" x1="-275.861" y1="535.815" x2="-265.434" y2="546.598" />
      <line id="336,396" x1="-286.644" y1="546.242" x2="-276.217" y2="557.025" />
      <line id="337,395" x1="-297.427" y1="556.669" x2="-287.000" y2="567.452" />
      <line id="342,374" x1="-348.304" y1="576.406" x2="-338.441" y2="587.708" />
      <line id="346,370" x1="-383.368" y1="607.004" x2="-373.506" y2="618.306" />
      <line id="348,368" x1="-403.356" y1="624.446" x2="-393.493" y2="635.748" />
      <line id="349,367" x1="-414.657" y1="634.308" x2="-404.795" y2="645.610" />
      <line id="352,363" x1="-445.517" y1="661.154" x2="-435.691" y2="672.487" />
      <line id="353,362" x1="-456.851" y1="670.980" x2="-447.024" y2="682.313" />
      <line id="387,392" x1="-316.545" y1="608.215" x2="-304.621" y2="617.316" />
      <line id="430,471" x1="-7.303" y1="337.689" x2=" 7.185" y2="341.575" />
      <line id="431,470" x1="-11.189" y1="352.177" x2=" 3.299" y2="356.063" />
      <line id="432,469" x1="-15.075" y1="366.665" x2="-0.587" y2="370.551" />
      <line id="434,467" x1="-21.948" y1="392.287" x2="-7.460" y2="396.173" />
      <line id="435,466" x1="-25.834" y1="406.775" x2="-11.346" y2="410.661" />
      <line id="439,465" x1="-29.687" y1="421.420" x2="-15.163" y2="425.167" />
      <line id="440,464" x1="-33.434" y1="435.944" x2="-18.910" y2="439.691" />
      <line id="444,460" x1="-45.059" y1="481.007" x2="-30.535" y2="484.754" />
      <line id="445,459" x1="-48.807" y1="495.531" x2="-34.282" y2="499.278" />
      <line id="446,458" x1="-52.554" y1="510.056" x2="-38.029" y2="513.803" />
      <line id="447,457" x1="-56.301" y1="524.580" x2="-41.776" y2="528.327" />
      <line id="482,504" x1="36.946" y1="345.353" x2="51.946" y2="345.209" />
      <line id="483,503" x1="37.090" y1="360.352" x2="52.089" y2="360.208" />
      <line id="484,502" x1="37.234" y1="375.351" x2="52.233" y2="375.207" />
      <line id="485,501" x1="37.378" y1="390.350" x2="52.377" y2="390.207" />
      <line id="486,500" x1="37.522" y1="405.350" x2="52.521" y2="405.206" />
      <line id="510,539" x1="174.231" y1="256.948" x2="188.898" y2="253.807" />
      <line id="511,538" x1="177.371" y1="271.615" x2="192.039" y2="268.475" />
      <line id="512,537" x1="180.512" y1="286.283" x2="195.179" y2="283.142" />
      <line id="519,532" x1="194.208" y1="349.280" x2="208.855" y2="346.046" />
      <line id="520,531" x1="197.443" y1="363.927" x2="212.090" y2="360.693" />
      <line id="521,530" x1="200.677" y1="378.574" x2="215.324" y2="375.340" />
      <line id="522,529" x1="203.911" y1="393.221" x2="218.558" y2="389.987" />
      <line id="548,867" x1="209.890" y1="232.375" x2="212.725" y2="217.645" />
      <line id="549,866" x1="224.620" y1="235.210" x2="227.455" y2="220.480" />
      <line id="550,864" x1="239.345" y1="238.069" x2="242.227" y2="223.348" />
      <line id="551,863" x1="254.065" y1="240.951" x2="256.947" y2="226.230" />
      <line id="553,862" x1="268.837" y1="243.819" x2="271.672" y2="229.089" />
      <line id="554,861" x1="283.567" y1="246.654" x2="286.402" y2="231.924" />
      <line id="555,860" x1="298.296" y1="249.489" x2="301.132" y2="234.760" />
      <line id="556,859" x1="313.026" y1="252.324" x2="315.861" y2="237.595" />
      <line id="557,858" x1="327.756" y1="255.160" x2="330.591" y2="240.430" />
      <line id="558,857" x1="342.485" y1="257.995" x2="345.320" y2="243.265" />
      <line id="559,856" x1="357.215" y1="260.830" x2="360.050" y2="246.100" />
      <line id="560,855" x1="371.945" y1="263.665" x2="374.780" y2="248.936" />
      <line id="568,813" x1="487.411" y1="292.445" x2="491.826" y2="278.110" />
      <line id="569,812" x1="501.746" y1="296.861" x2="506.162" y2="282.526" />
      <line id="570,811" x1="516.081" y1="301.277" x2="520.497" y2="286.942" />
      <line id="571,810" x1="530.416" y1="305.693" x2="534.832" y2="291.358" />
      <line id="572,809" x1="544.752" y1="310.109" x2="549.167" y2="295.774" />
      <line id="575,750" x1="574.308" y1="396.585" x2="581.205" y2="383.265" />
      <line id="576,749" x1="587.628" y1="403.483" x2="594.525" y2="390.162" />
      <line id="577,748" x1="600.948" y1="410.380" x2="607.845" y2="397.060" />
      <line id="578,747" x1="614.268" y1="417.277" x2="621.165" y2="403.957" />
      <line id="579,746" x1="627.588" y1="424.174" x2="634.486" y2="410.854" />
      <line id="580,745" x1="640.909" y1="431.072" x2="647.806" y2="417.751" />
      <line id="581,744" x1="654.229" y1="437.969" x2="661.126" y2="424.649" />
      <line id="582,743" x1="667.549" y1="444.866" x2="674.446" y2="431.546" />
      <line id="583,741" x1="680.858" y1="451.785" x2="687.798" y2="438.487" />
      <line id="584,740" x1="694.156" y1="458.724" x2="701.096" y2="445.426" />
      <line id="588,603" x1="712.879" y1="496.632" x2="724.685" y2="487.379" />
      <line id="590,601" x1="729.243" y1="517.511" x2="741.049" y2="508.258" />
      <line id="591,600" x1="738.496" y1="529.317" x2="750.302" y2="520.064" />
      <line id="612,738" x1="742.888" y1="463.532" x2="748.700" y2="449.704" />
      <line id="613,737" x1="756.716" y1="469.344" x2="762.528" y2="455.516" />
      <line id="614,736" x1="770.544" y1="475.156" x2="776.356" y2="461.328" />
      <line id="615,735" x1="784.372" y1="480.969" x2="790.185" y2="467.140" />
      <line id="616,734" x1="798.201" y1="486.781" x2="804.013" y2="472.952" />
      <line id="617,733" x1="812.029" y1="492.593" x2="817.841" y2="478.765" />
      <line id="618,732" x1="825.857" y1="498.405" x2="831.669" y2="484.577" />
      <line id="630,727" x1="896.989" y1="527.380" x2="902.491" y2="513.425" />
      <line id="631,726" x1="910.944" y1="532.881" x2="916.445" y2="518.926" />
      <line id="633,725" x1="924.952" y1="538.378" x2="930.409" y2="524.405" />
      <line id="634,724" x1="938.924" y1="543.834" x2="944.381" y2="529.862" />
      <line id="637,723" x1="953.003" y1="549.281" x2="958.371" y2="535.274" />
      <line id="638,722" x1="967.010" y1="554.648" x2="972.378" y2="540.641" />
      <line id="639,721" x1="981.017" y1="560.016" x2="986.385" y2="546.009" />
      <line id="640,720" x1="995.024" y1="565.383" x2="1000.391" y2="551.376" />
      <line id="641,716" x1="1009.005" y1="570.817" x2="1014.506" y2="556.862" />
      <line id="642,715" x1="1022.960" y1="576.319" x2="1028.461" y2="562.364" />
      <line id="643,714" x1="1036.915" y1="581.820" x2="1042.416" y2="567.865" />
      <line id="644,712" x1="1050.860" y1="587.344" x2="1056.406" y2="573.406" />
      <line id="645,711" x1="1064.798" y1="592.890" x2="1070.344" y2="578.952" />
      <line id="646,710" x1="1078.735" y1="598.435" x2="1084.281" y2="584.498" />
      <line id="651,681" x1="1132.116" y1="643.196" x2="1138.714" y2="629.725" />
      <line id="652,680" x1="1145.587" y1="649.793" x2="1152.185" y2="636.322" />
      <line id="653,679" x1="1159.058" y1="656.391" x2="1165.656" y2="642.920" />
      <line id="657,668" x1="1188.569" y1="695.576" x2="1195.466" y2="682.256" />
      <line id="658,667" x1="1201.889" y1="702.473" x2="1208.786" y2="689.153" />
      <line id="659,666" x1="1215.209" y1="709.370" x2="1222.106" y2="696.050" />
      <line id="671,676" x1="1208.316" y1="655.147" x2="1214.260" y2="641.375" />
      <line id="687,704" x1="1149.314" y1="601.660" x2="1153.269" y2="587.191" />
      <line id="688,703" x1="1163.783" y1="605.615" x2="1167.738" y2="591.146" />
      <line id="756,768" x1="585.978" y1="353.647" x2="583.615" y2="338.835" />
      <line id="757,767" x1="600.791" y1="351.284" x2="598.428" y2="336.471" />
      <line id="758,766" x1="615.604" y1="348.921" x2="613.241" y2="334.108" />
      <line id="759,765" x1="630.416" y1="346.558" x2="628.053" y2="331.745" />
      <line id="760,764" x1="645.229" y1="344.195" x2="642.866" y2="329.382" />
      <line id="778,798" x1="576.447" y1="309.704" x2="571.666" y2="295.486" />
      <line id="779,797" x1="590.664" y1="304.923" x2="585.883" y2="290.705" />
      <line id="780,796" x1="604.882" y1="300.142" x2="600.101" y2="285.924" />
      <line id="781,795" x1="619.100" y1="295.361" x2="614.319" y2="281.143" />
      <line id="782,794" x1="633.317" y1="290.580" x2="628.536" y2="276.362" />
      <line id="783,793" x1="647.535" y1="285.799" x2="642.754" y2="271.581" />
      <line id="819,843" x1="486.085" y1="240.172" x2="477.624" y2="227.786" />
      <line id="820,842" x1="498.471" y1="231.712" x2="490.011" y2="219.325" />
      <line id="821,841" x1="510.858" y1="223.252" x2="502.397" y2="210.865" />
      <line id="822,840" x1="523.244" y1="214.792" x2="514.784" y2="202.405" />
      <line id="823,839" x1="535.631" y1="206.331" x2="527.170" y2="193.945" />
      <line id="824,838" x1="548.017" y1="197.871" x2="539.557" y2="185.485" />
      <line id="825,837" x1="560.404" y1="189.411" x2="551.943" y2="177.025" />
      <line id="882,935" x1="199.616" y1="190.661" x2="186.285" y2="183.785" />
      <line id="883,934" x1="206.492" y1="177.330" x2="193.161" y2="170.454" />
      <line id="884,933" x1="213.368" y1="163.998" x2="200.037" y2="157.122" />
      <line id="886,931" x1="225.528" y1="140.422" x2="212.197" y2="133.546" />
      <line id="887,930" x1="232.404" y1="127.091" x2="219.073" y2="120.215" />
      <line id="889,928" x1="244.564" y1="103.515" x2="231.233" y2="96.639" />
      <line id="891,926" x1="256.724" y1="79.939" x2="243.393" y2="73.063" />
      <line id="892,925" x1="263.600" y1="66.607" x2="250.269" y2="59.732" />
      <line id="893,924" x1="270.476" y1="53.276" x2="257.145" y2="46.400" />
      <line id="901,916" x1="309.571" y1="-22.520" x2="296.239" y2="-29.396" />
      <line id="905,913" x1="328.286" y1="-58.943" x2="314.933" y2="-65.776" />
      <line id="952,975" x1="157.629" y1="174.907" x2="142.745" y2="173.043" />
      <line id="953,974" x1="159.493" y1="160.024" x2="144.610" y2="158.159" />
      <line id="954,973" x1="161.358" y1="145.140" x2="146.474" y2="143.275" />
      <line id="955,972" x1="163.223" y1="130.256" x2="148.339" y2="128.392" />
      <line id="956,971" x1="165.088" y1="115.373" x2="150.204" y2="113.508" />
      <line id="957,970" x1="166.952" y1="100.489" x2="152.069" y2="98.624" />
      <line id="958,969" x1="168.817" y1="85.605" x2="153.934" y2="83.741" />
      <line id="959,968" x1="170.682" y1="70.722" x2="155.798" y2="68.857" />
      <line id="960,967" x1="172.547" y1="55.838" x2="157.663" y2="53.973" />
      <line id="961,966" x1="174.412" y1="40.955" x2="159.528" y2="39.090" />
    </g>
    <g style="font-family: SansSerif" transform="translate(-4.6, 4)" id="seq">
      <text x="120.970" y="142.512">A</text>
      <text x="120.611" y="157.508">A</text>
      <text x="120.251" y="172.503">A</text>
      <text x="112.754" y="172.323">A</text>
      <text x="111.604" y="157.368">G</text>
      <text x="121.614" y="145.432">A</text>
      <text x="120.235" y="130.281">C</text>
      <text x="108.795" y="120.812">U</text>
      <text x="120.094" y="110.002">U</text>
      <text x="121.750" y="94.453">A</text>
      <text x="112.981" y="81.506">G</text>
      <text x="97.927" y="77.274">U</text>
      <text x="83.696" y="83.756">C</text>
      <text x="77.008" y="97.891">C</text>
      <text x="81.020" y="113.005">U</text>
      <text x="93.839" y="121.962">A</text>
      <text x="83.980" y="133.068">A</text>
      <text x="84.933" y="148.251">C</text>
      <text x="96.648" y="158.517">C</text>
      <text x="97.798" y="173.473">U</text>
      <text x="73.805" y="192.225">U</text>
      <text x="63.440" y="215.817">A</text>
      <text x="50.815" y="207.716">U</text>
      <text x="38.190" y="199.616">U</text>
      <text x="25.566" y="191.516">A</text>
      <text x="12.941" y="183.415">U</text>
      <text x="0.316" y="175.315">U</text>
      <text x="-12.308" y="167.214">G</text>
      <text x="-24.933" y="159.114">G</text>
      <text x="-37.558" y="151.013">U</text>
      <text x="-50.182" y="142.913">U</text>
      <text x="-50.968" y="120.162">U</text>
      <text x="-76.968" y="106.454">U</text>
      <text x="-88.046" y="96.342">U</text>
      <text x="-99.125" y="86.229">G</text>
      <text x="-110.203" y="76.116">C</text>
      <text x="-121.282" y="66.004">U</text>
      <text x="-132.360" y="55.891">A</text>
      <text x="-143.422" y="45.760">G</text>
      <text x="-154.469" y="35.612">A</text>
      <text x="-149.672" y="25.755">C</text>
      <text x="-149.554" y="13.721">A</text>
      <text x="-155.016" y="1.803">U</text>
      <text x="-165.832" y="-7.383">A</text>
      <text x="-180.553" y="-11.449">U</text>
      <text x="-190.541" y="-22.640">A</text>
      <text x="-200.530" y="-33.830">C</text>
      <text x="-203.849" y="-42.200">A</text>
      <text x="-210.568" y="-45.041">U</text>
      <text x="-220.591" y="-56.200">G</text>
      <text x="-230.615" y="-67.359">C</text>
      <text x="-215.686" y="-86.520">A</text>
      <text x="-216.667" y="-116.173">A</text>
      <text x="-239.484" y="-142.906">G</text>
      <text x="-244.874" y="-156.904">U</text>
      <text x="-241.792" y="-173.011">A</text>
      <text x="-254.375" y="-183.528">U</text>
      <text x="-269.679" y="-177.635">C</text>
      <text x="-271.960" y="-161.396">C</text>
      <text x="-258.872" y="-151.515">G</text>
      <text x="-253.482" y="-137.516">C</text>
      <text x="-259.884" y="-133.608">A</text>
      <text x="-267.700" y="-146.411">C</text>
      <text x="-275.516" y="-159.214">U</text>
      <text x="-288.318" y="-151.397">C</text>
      <text x="-280.502" y="-138.595">C</text>
      <text x="-272.686" y="-125.792">A</text>
      <text x="-279.088" y="-121.884">G</text>
      <text x="-289.076" y="-133.075">U</text>
      <text x="-299.064" y="-144.266">G</text>
      <text x="-290.428" y="-153.006">A</text>
      <text x="-284.192" y="-164.486">G</text>
      <text x="-281.206" y="-178.005">A</text>
      <text x="-282.103" y="-192.605">A</text>
      <text x="-287.227" y="-207.141">U</text>
      <text x="-296.579" y="-220.367">G</text>
      <text x="-309.790" y="-231.043">C</text>
      <text x="-326.128" y="-238.043">C</text>
      <text x="-334.449" y="-250.523">C</text>
      <text x="-335.667" y="-266.297">C</text>
      <text x="-349.165" y="-272.595">C</text>
      <text x="-357.486" y="-285.075">U</text>
      <text x="-353.352" y="-297.813">A</text>
      <text x="-357.214" y="-310.434">A</text>
      <text x="-367.462" y="-318.440">U</text>
      <text x="-380.255" y="-319.111">C</text>
      <text x="-388.616" y="-331.565">U</text>
      <text x="-396.977" y="-344.019">U</text>
      <text x="-391.512" y="-358.542">U</text>
      <text x="-395.660" y="-373.494">C</text>
      <text x="-407.825" y="-383.127">C</text>
      <text x="-423.330" y="-383.735">C</text>
      <text x="-436.213" y="-375.086">A</text>
      <text x="-441.520" y="-360.505">C</text>
      <text x="-437.211" y="-345.598">C</text>
      <text x="-424.942" y="-336.098">C</text>
      <text x="-409.431" y="-335.658">A</text>
      <text x="-401.070" y="-323.204">A</text>
      <text x="-392.709" y="-310.750">G</text>
      <text x="-396.632" y="-294.338">C</text>
      <text x="-387.234" y="-279.915">A</text>
      <text x="-369.967" y="-276.754">A</text>
      <text x="-361.646" y="-264.273">G</text>
      <text x="-361.023" y="-249.392">A</text>
      <text x="-346.930" y="-242.202">G</text>
      <text x="-338.609" y="-229.722">G</text>
      <text x="-344.376" y="-224.927">A</text>
      <text x="-353.965" y="-236.462">G</text>
      <text x="-365.500" y="-226.873">C</text>
      <text x="-355.911" y="-215.339">A</text>
      <text x="-361.679" y="-210.544">G</text>
      <text x="-372.428" y="-221.006">G</text>
      <text x="-383.178" y="-231.467">C</text>
      <text x="-393.911" y="-241.946">A</text>
      <text x="-404.627" y="-252.442">U</text>
      <text x="-397.883" y="-265.984">C</text>
      <text x="-395.656" y="-280.947">A</text>
      <text x="-398.164" y="-295.865">G</text>
      <text x="-405.160" y="-309.278">G</text>
      <text x="-415.961" y="-319.871">C</text>
      <text x="-429.507" y="-326.606">A</text>
      <text x="-444.472" y="-328.823">C</text>
      <text x="-459.389" y="-326.305">A</text>
      <text x="-472.797" y="-319.299">C</text>
      <text x="-483.382" y="-308.492">C</text>
      <text x="-490.108" y="-294.941">A</text>
      <text x="-492.315" y="-279.975">A</text>
      <text x="-489.787" y="-265.060">A</text>
      <text x="-482.773" y="-251.656">C</text>
      <text x="-471.958" y="-241.078">A</text>
      <text x="-458.403" y="-234.362">A</text>
      <text x="-443.435" y="-232.164">C</text>
      <text x="-428.522" y="-234.702">A</text>
      <text x="-415.123" y="-241.726">G</text>
      <text x="-404.407" y="-231.230">U</text>
      <text x="-401.859" y="-224.395">A</text>
      <text x="-393.640" y="-220.718">G</text>
      <text x="-382.890" y="-210.256">C</text>
      <text x="-372.140" y="-199.795">C</text>
      <text x="-376.944" y="-194.035">C</text>
      <text x="-388.464" y="-203.642">A</text>
      <text x="-399.983" y="-213.249">A</text>
      <text x="-409.590" y="-201.729">A</text>
      <text x="-398.071" y="-192.122">A</text>
      <text x="-386.551" y="-182.515">C</text>
      <text x="-391.354" y="-176.755">G</text>
      <text x="-403.576" y="-185.451">C</text>
      <text x="-412.977" y="-199.560">C</text>
      <text x="-429.137" y="-194.433">U</text>
      <text x="-428.684" y="-177.485">U</text>
      <text x="-412.273" y="-173.229">G</text>
      <text x="-400.051" y="-164.533">U</text>
      <text x="-390.456" y="-144.371">U</text>
      <text x="-375.485" y="-129.642">A</text>
      <text x="-357.567" y="-121.504">A</text>
      <text x="-339.257" y="-120.154">A</text>
      <text x="-322.883" y="-124.889">C</text>
      <text x="-310.255" y="-134.278">C</text>
      <text x="-300.267" y="-123.087">A</text>
      <text x="-290.279" y="-111.896">C</text>
      <text x="-294.943" y="-106.023">A</text>
      <text x="-309.780" y="-108.228">C</text>
      <text x="-304.271" y="-94.276">C</text>
      <text x="-308.935" y="-88.403">C</text>
      <text x="-322.098" y="-95.596">C</text>
      <text x="-330.161" y="-109.876">C</text>
      <text x="-346.560" y="-109.763">A</text>
      <text x="-354.424" y="-95.372">C</text>
      <text x="-345.664" y="-81.509">G</text>
      <text x="-329.291" y="-82.434">G</text>
      <text x="-316.129" y="-75.240">G</text>
      <text x="-307.629" y="-61.552">U</text>
      <text x="-296.366" y="-51.527">A</text>
      <text x="-283.639" y="-45.581">U</text>
      <text x="-270.748" y="-43.718">U</text>
      <text x="-258.880" y="-45.557">C</text>
      <text x="-249.000" y="-50.403">A</text>
      <text x="-241.774" y="-57.335">G</text>
      <text x="-231.750" y="-46.176">C</text>
      <text x="-221.727" y="-35.017">A</text>
      <text x="-211.720" y="-23.842">G</text>
      <text x="-201.732" y="-12.651">U</text>
      <text x="-191.744" y="-1.461">A</text>
      <text x="-195.683" y="4.922">A</text>
      <text x="-208.448" y="-2.955">U</text>
      <text x="-221.213" y="-10.833">U</text>
      <text x="-233.978" y="-18.710">A</text>
      <text x="-241.855" y="-5.944">A</text>
      <text x="-229.090" y="1.933">C</text>
      <text x="-216.325" y="9.810">G</text>
      <text x="-203.560" y="17.687">U</text>
      <text x="-207.499" y="24.070">U</text>
      <text x="-221.980" y="20.160">A</text>
      <text x="-236.462" y="16.251">A</text>
      <text x="-250.944" y="12.342">G</text>
      <text x="-255.727" y="2.753">C</text>
      <text x="-264.775" y="-2.572">A</text>
      <text x="-275.045" y="-2.118">A</text>
      <text x="-283.232" y="3.731">U</text>
      <text x="-297.738" y="-0.086">A</text>
      <text x="-312.245" y="-3.903">A</text>
      <text x="-326.751" y="-7.719">G</text>
      <text x="-341.257" y="-11.536">U</text>
      <text x="-352.519" y="-23.457">G</text>
      <text x="-368.409" y="-19.403">C</text>
      <text x="-372.581" y="-3.543">A</text>
      <text x="-360.744" y="7.806">A</text>
      <text x="-345.074" y="2.970">A</text>
      <text x="-330.568" y="6.787">C</text>
      <text x="-316.061" y="10.604">U</text>
      <text x="-301.555" y="14.420">U</text>
      <text x="-287.049" y="18.237">G</text>
      <text x="-274.197" y="32.780">A</text>
      <text x="-254.853" y="26.823">C</text>
      <text x="-240.371" y="30.733">U</text>
      <text x="-225.890" y="34.642">U</text>
      <text x="-211.408" y="38.551">A</text>
      <text x="-187.039" y="54.436">G</text>
      <text x="-164.617" y="46.658">C</text>
      <text x="-153.570" y="56.807">C</text>
      <text x="-150.805" y="63.557">A</text>
      <text x="-142.473" y="66.969">U</text>
      <text x="-131.394" y="77.082">A</text>
      <text x="-120.316" y="87.195">G</text>
      <text x="-109.237" y="97.307">C</text>
      <text x="-98.159" y="107.420">A</text>
      <text x="-87.080" y="117.533">A</text>
      <text x="-89.528" y="124.622">U</text>
      <text x="-103.707" y="119.728">U</text>
      <text x="-115.679" y="110.692">C</text>
      <text x="-127.973" y="119.286">U</text>
      <text x="-123.598" y="133.634">U</text>
      <text x="-108.601" y="133.907">U</text>
      <text x="-94.422" y="138.802">A</text>
      <text x="-96.869" y="145.891">G</text>
      <text x="-111.827" y="147.017">G</text>
      <text x="-126.785" y="148.142">G</text>
      <text x="-141.742" y="149.268">U</text>
      <text x="-156.700" y="150.393">U</text>
      <text x="-171.679" y="151.184">G</text>
      <text x="-186.672" y="151.639">G</text>
      <text x="-201.665" y="152.094">U</text>
      <text x="-207.257" y="138.005">A</text>
      <text x="-217.332" y="126.680">A</text>
      <text x="-230.675" y="119.486">A</text>
      <text x="-245.674" y="117.293">U</text>
      <text x="-260.517" y="120.365">C</text>
      <text x="-273.414" y="128.331">U</text>
      <text x="-282.805" y="140.230">U</text>
      <text x="-287.558" y="154.624">G</text>
      <text x="-287.098" y="169.775">U</text>
      <text x="-281.480" y="183.854">G</text>
      <text x="-271.384" y="195.161">C</text>
      <text x="-258.028" y="202.330">C</text>
      <text x="-243.025" y="204.495">A</text>
      <text x="-228.187" y="201.396">G</text>
      <text x="-215.306" y="193.406">C</text>
      <text x="-205.936" y="181.490">U</text>
      <text x="-201.210" y="167.087">A</text>
      <text x="-186.217" y="166.632">C</text>
      <text x="-171.224" y="166.177">C</text>
      <text x="-184.709" y="172.745">G</text>
      <text x="-194.668" y="183.962">C</text>
      <text x="-199.591" y="198.131">G</text>
      <text x="-198.733" y="213.107">G</text>
      <text x="-192.225" y="226.621">U</text>
      <text x="-181.052" y="236.629">C</text>
      <text x="-166.905" y="241.615">A</text>
      <text x="-151.926" y="240.824">U</text>
      <text x="-138.382" y="234.376">A</text>
      <text x="-128.325" y="223.247">C</text>
      <text x="-123.277" y="209.122">A</text>
      <text x="-124.002" y="194.139">A</text>
      <text x="-130.390" y="180.567">G</text>
      <text x="-141.474" y="170.461">A</text>
      <text x="-155.574" y="165.351">G</text>
      <text x="-140.617" y="164.225">A</text>
      <text x="-125.659" y="163.100">C</text>
      <text x="-110.701" y="161.974">C</text>
      <text x="-95.744" y="160.849">C</text>
      <text x="-73.165" y="165.947">A</text>
      <text x="-58.283" y="155.538">A</text>
      <text x="-45.658" y="163.638">A</text>
      <text x="-33.034" y="171.738">U</text>
      <text x="-20.409" y="179.839">C</text>
      <text x="-7.784" y="187.939">A</text>
      <text x="4.841" y="196.040">A</text>
      <text x="17.465" y="204.140">U</text>
      <text x="30.090" y="212.241">A</text>
      <text x="42.715" y="220.341">A</text>
      <text x="55.339" y="228.442">U</text>
      <text x="52.198" y="238.217">C</text>
      <text x="51.170" y="248.433">A</text>
      <text x="52.301" y="258.639">U</text>
      <text x="55.541" y="268.382">C</text>
      <text x="60.747" y="277.232">C</text>
      <text x="67.689" y="284.798">G</text>
      <text x="59.609" y="297.436">G</text>
      <text x="51.528" y="310.074">C</text>
      <text x="43.448" y="322.711">G</text>
      <text x="39.313" y="312.520">U</text>
      <text x="31.276" y="303.593">A</text>
      <text x="19.753" y="297.065">A</text>
      <text x="5.452" y="293.939">A</text>
      <text x="-10.667" y="295.021">G</text>
      <text x="-27.443" y="300.856">A</text>
      <text x="-43.582" y="311.685">G</text>
      <text x="-54.365" y="322.112">U</text>
      <text x="-65.148" y="332.540">G</text>
      <text x="-75.931" y="342.967">G</text>
      <text x="-91.844" y="338.259">C</text>
      <text x="-107.859" y="342.233">C</text>
      <text x="-119.591" y="353.701">A</text>
      <text x="-123.877" y="369.439">C</text>
      <text x="-119.630" y="385.091">A</text>
      <text x="-131.523" y="376.663">U</text>
      <text x="-144.758" y="370.563">G</text>
      <text x="-158.883" y="366.998">U</text>
      <text x="-173.419" y="366.087">U</text>
      <text x="-187.871" y="367.860">A</text>
      <text x="-201.747" y="372.254">U</text>
      <text x="-214.578" y="379.120">C</text>
      <text x="-225.926" y="388.223">U</text>
      <text x="-235.408" y="399.251">A</text>
      <text x="-242.701" y="411.829">C</text>
      <text x="-247.560" y="425.528">A</text>
      <text x="-249.821" y="439.882">C</text>
      <text x="-249.408" y="454.404">C</text>
      <text x="-246.336" y="468.599">A</text>
      <text x="-240.712" y="481.984">A</text>
      <text x="-232.729" y="494.106">C</text>
      <text x="-243.512" y="504.533">U</text>
      <text x="-254.295" y="514.961">A</text>
      <text x="-265.078" y="525.388">A</text>
      <text x="-275.861" y="535.815">G</text>
      <text x="-286.644" y="546.242">A</text>
      <text x="-297.427" y="556.669">U</text>
      <text x="-306.878" y="551.023">C</text>
      <text x="-318.821" y="549.620">G</text>
      <text x="-331.279" y="553.494">A</text>
      <text x="-341.881" y="562.744">A</text>
      <text x="-348.304" y="576.406">G</text>
      <text x="-363.349" y="573.098">C</text>
      <text x="-377.294" y="579.211">U</text>
      <text x="-384.876" y="592.210">C</text>
      <text x="-383.368" y="607.004">A</text>
      <text x="-398.853" y="610.248">A</text>
      <text x="-403.356" y="624.446">C</text>
      <text x="-414.657" y="634.308">U</text>
      <text x="-432.149" y="632.833">A</text>
      <text x="-445.000" y="644.287">A</text>
      <text x="-445.517" y="661.154">G</text>
      <text x="-456.851" y="670.980">C</text>
      <text x="-471.934" y="667.339">C</text>
      <text x="-486.265" y="673.290">G</text>
      <text x="-494.332" y="686.545">U</text>
      <text x="-493.033" y="702.008">C</text>
      <text x="-482.868" y="713.732">A</text>
      <text x="-467.745" y="717.209">U</text>
      <text x="-453.480" y="711.103">A</text>
      <text x="-445.558" y="697.761">A</text>
      <text x="-447.024" y="682.313">G</text>
      <text x="-435.691" y="672.487">C</text>
      <text x="-423.169" y="675.193">C</text>
      <text x="-411.180" y="670.154">U</text>
      <text x="-404.145" y="658.987">A</text>
      <text x="-404.795" y="645.610">A</text>
      <text x="-393.493" y="635.748">G</text>
      <text x="-378.816" y="633.210">A</text>
      <text x="-373.506" y="618.306">U</text>
      <text x="-359.052" y="621.804">C</text>
      <text x="-345.146" y="616.052">U</text>
      <text x="-337.201" y="603.063">A</text>
      <text x="-338.441" y="587.708">U</text>
      <text x="-332.967" y="592.835">C</text>
      <text x="-343.221" y="603.783">U</text>
      <text x="-353.474" y="614.732">A</text>
      <text x="-363.728" y="625.680">A</text>
      <text x="-373.981" y="636.628">G</text>
      <text x="-384.235" y="647.577">C</text>
      <text x="-373.286" y="657.830">C</text>
      <text x="-363.033" y="646.882">C</text>
      <text x="-352.779" y="635.933">A</text>
      <text x="-342.526" y="624.985">A</text>
      <text x="-332.272" y="614.037">C</text>
      <text x="-322.019" y="603.088">C</text>
      <text x="-316.545" y="608.215">U</text>
      <text x="-331.880" y="614.026">C</text>
      <text x="-334.247" y="630.254">A</text>
      <text x="-321.212" y="640.204">A</text>
      <text x="-306.183" y="633.641">A</text>
      <text x="-304.621" y="617.316">A</text>
      <text x="-285.926" y="603.646">C</text>
      <text x="-280.271" y="583.957">C</text>
      <text x="-287.000" y="567.452">A</text>
      <text x="-276.217" y="557.025">U</text>
      <text x="-265.434" y="546.598">C</text>
      <text x="-254.651" y="536.171">U</text>
      <text x="-243.868" y="525.744">U</text>
      <text x="-233.085" y="515.317">A</text>
      <text x="-222.302" y="504.889">G</text>
      <text x="-209.641" y="513.738">C</text>
      <text x="-195.492" y="519.946">C</text>
      <text x="-180.399" y="523.273">C</text>
      <text x="-164.942" y="523.589">C</text>
      <text x="-149.716" y="520.879">C</text>
      <text x="-135.308" y="515.247">A</text>
      <text x="-122.273" y="506.907">U</text>
      <text x="-111.115" y="496.180">G</text>
      <text x="-102.263" y="483.476">A</text>
      <text x="-96.060" y="469.284">U</text>
      <text x="-92.748" y="454.149">U</text>
      <text x="-92.454" y="438.654">A</text>
      <text x="-95.192" y="423.396">A</text>
      <text x="-100.859" y="408.961">U</text>
      <text x="-109.238" y="395.907">U</text>
      <text x="-96.467" y="400.549">U</text>
      <text x="-82.873" y="399.257">U</text>
      <text x="-71.092" y="392.224">A</text>
      <text x="-63.432" y="380.761">A</text>
      <text x="-61.421" y="367.056">C</text>
      <text x="-65.504" y="353.750">C</text>
      <text x="-54.721" y="343.323">C</text>
      <text x="-43.938" y="332.896">A</text>
      <text x="-33.155" y="322.468">C</text>
      <text x="-26.692" y="326.274">G</text>
      <text x="-34.302" y="339.200">A</text>
      <text x="-21.376" y="346.810">A</text>
      <text x="-13.766" y="333.884">A</text>
      <text x="-7.303" y="337.689">G</text>
      <text x="-11.189" y="352.177">C</text>
      <text x="-15.075" y="366.665">C</text>
      <text x="-26.124" y="377.989">A</text>
      <text x="-21.948" y="392.287">G</text>
      <text x="-25.834" y="406.775">G</text>
      <text x="-29.341" y="410.295">A</text>
      <text x="-31.058" y="414.386">U</text>
      <text x="-31.058" y="418.301">A</text>
      <text x="-29.687" y="421.420">C</text>
      <text x="-33.434" y="435.944">A</text>
      <text x="-47.715" y="441.721">A</text>
      <text x="-55.762" y="454.648">A</text>
      <text x="-54.667" y="469.656">C</text>
      <text x="-45.059" y="481.007">U</text>
      <text x="-48.807" y="495.531">G</text>
      <text x="-52.554" y="510.056">G</text>
      <text x="-56.301" y="524.580">G</text>
      <text x="-70.983" y="529.317">A</text>
      <text x="-80.756" y="541.253">U</text>
      <text x="-82.502" y="556.582">U</text>
      <text x="-75.662" y="570.410">A</text>
      <text x="-62.421" y="578.326">G</text>
      <text x="-47.002" y="577.804">A</text>
      <text x="-34.327" y="569.010">U</text>
      <text x="-28.439" y="554.750">A</text>
      <text x="-31.218" y="539.575">C</text>
      <text x="-41.776" y="528.327">C</text>
      <text x="-38.029" y="513.803">C</text>
      <text x="-34.282" y="499.278">C</text>
      <text x="-30.535" y="484.754">A</text>
      <text x="-16.636" y="479.468">C</text>
      <text x="-8.417" y="466.862">U</text>
      <text x="-9.206" y="451.656">A</text>
      <text x="-18.910" y="439.691">U</text>
      <text x="-15.163" y="425.167">G</text>
      <text x="-11.346" y="410.661">C</text>
      <text x="-7.460" y="396.173">C</text>
      <text x="3.311" y="385.885">C</text>
      <text x="-0.587" y="370.551">G</text>
      <text x="3.299" y="356.063">G</text>
      <text x="7.185" y="341.575">C</text>
      <text x="14.625" y="342.520">C</text>
      <text x="12.737" y="357.400">A</text>
      <text x="10.848" y="372.281">U</text>
      <text x="8.960" y="387.162">A</text>
      <text x="7.071" y="402.042">A</text>
      <text x="21.952" y="403.930">A</text>
      <text x="23.840" y="389.050">U</text>
      <text x="25.729" y="374.170">U</text>
      <text x="27.617" y="359.289">U</text>
      <text x="29.506" y="344.408">A</text>
      <text x="36.946" y="345.353">G</text>
      <text x="37.090" y="360.352">A</text>
      <text x="37.234" y="375.351">U</text>
      <text x="37.378" y="390.350">A</text>
      <text x="37.522" y="405.350">C</text>
      <text x="23.652" y="411.639">C</text>
      <text x="13.544" y="423.029">C</text>
      <text x="8.949" y="437.549">U</text>
      <text x="10.664" y="452.681">C</text>
      <text x="18.390" y="465.804">C</text>
      <text x="30.790" y="474.645">U</text>
      <text x="45.715" y="477.671">U</text>
      <text x="60.580" y="474.359">A</text>
      <text x="72.808" y="465.282">C</text>
      <text x="80.282" y="452.013">U</text>
      <text x="81.705" y="436.851">U</text>
      <text x="76.833" y="422.423">U</text>
      <text x="66.509" y="411.228">C</text>
      <text x="52.521" y="405.206">G</text>
      <text x="52.377" y="390.207">U</text>
      <text x="52.233" y="375.207">A</text>
      <text x="52.089" y="360.208">U</text>
      <text x="51.946" y="345.209">C</text>
      <text x="56.086" y="330.791">C</text>
      <text x="64.166" y="318.154">G</text>
      <text x="72.246" y="305.516">C</text>
      <text x="80.327" y="292.879">C</text>
      <text x="130.665" y="301.828">U</text>
      <text x="174.231" y="256.948">G</text>
      <text x="177.371" y="271.615">A</text>
      <text x="180.512" y="286.283">G</text>
      <text x="170.253" y="293.893">A</text>
      <text x="163.621" y="304.754">A</text>
      <text x="161.554" y="317.264">C</text>
      <text x="164.318" y="329.592">U</text>
      <text x="171.476" y="339.945">A</text>
      <text x="181.956" y="346.833">C</text>
      <text x="194.208" y="349.280">G</text>
      <text x="197.443" y="363.927">A</text>
      <text x="200.677" y="378.574">G</text>
      <text x="203.911" y="393.221">C</text>
      <text x="195.198" y="406.407">A</text>
      <text x="198.442" y="421.875">C</text>
      <text x="211.719" y="430.448">A</text>
      <text x="227.152" y="427.040">A</text>
      <text x="235.584" y="413.673">A</text>
      <text x="232.013" y="398.278">C</text>
      <text x="218.558" y="389.987">G</text>
      <text x="215.324" y="375.340">C</text>
      <text x="212.090" y="360.693">U</text>
      <text x="208.855" y="346.046">U</text>
      <text x="222.020" y="334.789">A</text>
      <text x="227.626" y="318.306">A</text>
      <text x="224.016" y="301.181">A</text>
      <text x="212.112" y="288.231">A</text>
      <text x="195.179" y="283.142">C</text>
      <text x="192.039" y="268.475">U</text>
      <text x="188.898" y="253.807">C</text>
      <text x="194.146" y="248.449">U</text>
      <text x="203.934" y="259.815">A</text>
      <text x="208.892" y="273.972">A</text>
      <text x="223.534" y="277.232">G</text>
      <text x="234.029" y="266.516">G</text>
      <text x="230.466" y="251.945">A</text>
      <text x="216.209" y="247.283">C</text>
      <text x="204.642" y="237.733">U</text>
      <text x="209.890" y="232.375">U</text>
      <text x="224.620" y="235.210">G</text>
      <text x="239.345" y="238.069">G</text>
      <text x="254.065" y="240.951">C</text>
      <text x="261.767" y="245.615">G</text>
      <text x="268.837" y="243.819">G</text>
      <text x="283.567" y="246.654">U</text>
      <text x="298.296" y="249.489">G</text>
      <text x="313.026" y="252.324">C</text>
      <text x="327.756" y="255.160">C</text>
      <text x="342.485" y="257.995">C</text>
      <text x="357.215" y="260.830">C</text>
      <text x="371.945" y="263.665">A</text>
      <text x="374.260" y="284.544">A</text>
      <text x="383.549" y="303.363">A</text>
      <text x="398.684" y="317.872">C</text>
      <text x="417.842" y="326.342">C</text>
      <text x="438.720" y="327.768">C</text>
      <text x="458.813" y="321.995">A</text>
      <text x="475.716" y="309.726">C</text>
      <text x="487.411" y="292.445">C</text>
      <text x="501.746" y="296.861">U</text>
      <text x="516.081" y="301.277">A</text>
      <text x="530.416" y="305.693">G</text>
      <text x="544.752" y="310.109">A</text>
      <text x="529.766" y="333.231">G</text>
      <text x="537.767" y="368.409">G</text>
      <text x="574.308" y="396.585">A</text>
      <text x="587.628" y="403.483">G</text>
      <text x="600.948" y="410.380">C</text>
      <text x="614.268" y="417.277">C</text>
      <text x="627.588" y="424.174">U</text>
      <text x="640.909" y="431.072">G</text>
      <text x="654.229" y="437.969">U</text>
      <text x="667.549" y="444.866">U</text>
      <text x="680.858" y="451.785">C</text>
      <text x="694.156" y="458.724">U</text>
      <text x="691.433" y="468.235">G</text>
      <text x="693.377" y="479.327">U</text>
      <text x="700.684" y="489.653">A</text>
      <text x="712.879" y="496.632">A</text>
      <text x="715.302" y="512.266">C</text>
      <text x="729.243" y="517.511">C</text>
      <text x="738.496" y="529.317">G</text>
      <text x="734.112" y="544.202">A</text>
      <text x="739.347" y="558.809">U</text>
      <text x="752.187" y="567.522">A</text>
      <text x="767.695" y="566.991">A</text>
      <text x="779.908" y="557.419">U</text>
      <text x="784.130" y="542.487">C</text>
      <text x="778.737" y="527.937">C</text>
      <text x="765.803" y="519.364">A</text>
      <text x="750.302" y="520.064">C</text>
      <text x="741.049" y="508.258">G</text>
      <text x="739.288" y="493.468">A</text>
      <text x="724.685" y="487.379">U</text>
      <text x="729.236" y="481.417">U</text>
      <text x="741.159" y="490.518">C</text>
      <text x="753.083" y="499.620">A</text>
      <text x="765.006" y="508.721">C</text>
      <text x="774.107" y="496.797">C</text>
      <text x="762.184" y="487.696">C</text>
      <text x="750.261" y="478.595">A</text>
      <text x="738.337" y="469.494">A</text>
      <text x="742.888" y="463.532">C</text>
      <text x="756.716" y="469.344">C</text>
      <text x="770.544" y="475.156">A</text>
      <text x="784.372" y="480.969">C</text>
      <text x="798.201" y="486.781">C</text>
      <text x="812.029" y="492.593">C</text>
      <text x="825.857" y="498.405">C</text>
      <text x="825.093" y="507.467">U</text>
      <text x="826.426" y="516.449">U</text>
      <text x="829.779" y="524.873">G</text>
      <text x="834.966" y="532.291">C</text>
      <text x="841.707" y="538.313">C</text>
      <text x="849.638" y="542.621">A</text>
      <text x="858.331" y="544.991">A</text>
      <text x="867.323" y="545.303">C</text>
      <text x="876.133" y="543.547">A</text>
      <text x="884.292" y="539.823">C</text>
      <text x="891.369" y="534.334">A</text>
      <text x="896.989" y="527.380">G</text>
      <text x="910.944" y="532.881">C</text>
      <text x="917.674" y="538.863">C</text>
      <text x="924.952" y="538.378">U</text>
      <text x="938.924" y="543.834">A</text>
      <text x="943.210" y="548.597">C</text>
      <text x="948.459" y="550.317">A</text>
      <text x="953.003" y="549.281">U</text>
      <text x="967.010" y="554.648">A</text>
      <text x="981.017" y="560.016">C</text>
      <text x="995.024" y="565.383">C</text>
      <text x="1009.005" y="570.817">G</text>
      <text x="1022.960" y="576.319">C</text>
      <text x="1036.915" y="581.820">C</text>
      <text x="1050.860" y="587.344">G</text>
      <text x="1064.798" y="592.890">U</text>
      <text x="1078.735" y="598.435">C</text>
      <text x="1077.629" y="613.667">G</text>
      <text x="1083.555" y="628.743">C</text>
      <text x="1096.086" y="640.422">C</text>
      <text x="1113.312" y="645.843">A</text>
      <text x="1132.116" y="643.196">G</text>
      <text x="1145.587" y="649.793">C</text>
      <text x="1159.058" y="656.391">U</text>
      <text x="1156.945" y="668.181">C</text>
      <text x="1161.287" y="681.019">A</text>
      <text x="1172.383" y="691.320">C</text>
      <text x="1188.569" y="695.576">C</text>
      <text x="1201.889" y="702.473">U</text>
      <text x="1215.209" y="709.370">C</text>
      <text x="1219.755" y="724.507">C</text>
      <text x="1233.712" y="731.922">A</text>
      <text x="1248.799" y="727.216">A</text>
      <text x="1256.066" y="713.182">U</text>
      <text x="1251.201" y="698.145">G</text>
      <text x="1237.091" y="691.027">A</text>
      <text x="1222.106" y="696.050">G</text>
      <text x="1208.786" y="689.153">A</text>
      <text x="1195.466" y="682.256">G</text>
      <text x="1198.678" y="675.478">A</text>
      <text x="1205.103" y="661.924">C</text>
      <text x="1208.316" y="655.147">U</text>
      <text x="1217.666" y="668.619">A</text>
      <text x="1233.984" y="666.988">A</text>
      <text x="1240.483" y="651.932">C</text>
      <text x="1230.477" y="638.939">A</text>
      <text x="1214.260" y="641.375">G</text>
      <text x="1195.928" y="630.113">U</text>
      <text x="1177.278" y="631.940">G</text>
      <text x="1165.656" y="642.920">A</text>
      <text x="1152.185" y="636.322">G</text>
      <text x="1138.714" y="629.725">C</text>
      <text x="1141.364" y="622.708">C</text>
      <text x="1155.396" y="628.009">U</text>
      <text x="1170.199" y="625.582">A</text>
      <text x="1160.696" y="613.976">A</text>
      <text x="1146.664" y="608.676">U</text>
      <text x="1149.314" y="601.660">A</text>
      <text x="1163.783" y="605.615">G</text>
      <text x="1165.656" y="620.700">A</text>
      <text x="1173.164" y="633.918">C</text>
      <text x="1185.161" y="643.252">U</text>
      <text x="1199.819" y="647.280">U</text>
      <text x="1214.901" y="645.387">U</text>
      <text x="1228.109" y="637.862">C</text>
      <text x="1237.427" y="625.852">C</text>
      <text x="1241.436" y="611.190">C</text>
      <text x="1239.523" y="596.109">C</text>
      <text x="1231.981" y="582.912">C</text>
      <text x="1219.959" y="573.609">C</text>
      <text x="1205.291" y="569.620">C</text>
      <text x="1190.213" y="571.552">C</text>
      <text x="1177.025" y="579.112">C</text>
      <text x="1167.738" y="591.146">C</text>
      <text x="1153.269" y="587.191">U</text>
      <text x="1143.519" y="574.911">A</text>
      <text x="1130.578" y="567.242">A</text>
      <text x="1116.379" y="564.808">C</text>
      <text x="1102.874" y="567.489">A</text>
      <text x="1091.762" y="574.488">A</text>
      <text x="1084.281" y="584.498">G</text>
      <text x="1070.344" y="578.952">A</text>
      <text x="1056.406" y="573.406">C</text>
      <text x="1051.417" y="568.085">A</text>
      <text x="1042.416" y="567.865">G</text>
      <text x="1028.461" y="562.364">G</text>
      <text x="1014.506" y="556.862">U</text>
      <text x="1012.788" y="553.921">C</text>
      <text x="1009.620" y="551.620">A</text>
      <text x="1005.301" y="550.606">A</text>
      <text x="1000.391" y="551.376">G</text>
      <text x="986.385" y="546.009">G</text>
      <text x="972.378" y="540.641">U</text>
      <text x="958.371" y="535.274">A</text>
      <text x="944.381" y="529.862">U</text>
      <text x="930.409" y="524.405">A</text>
      <text x="916.445" y="518.926">G</text>
      <text x="902.491" y="513.425">C</text>
      <text x="900.689" y="492.581">C</text>
      <text x="888.271" y="475.647">C</text>
      <text x="868.788" y="467.604">A</text>
      <text x="847.887" y="470.872">U</text>
      <text x="831.669" y="484.577">G</text>
      <text x="817.841" y="478.765">G</text>
      <text x="804.013" y="472.952">G</text>
      <text x="790.185" y="467.140">G</text>
      <text x="776.356" y="461.328">U</text>
      <text x="762.528" y="455.516">G</text>
      <text x="748.700" y="449.704">G</text>
      <text x="722.313" y="433.831">A</text>
      <text x="701.096" y="445.426">A</text>
      <text x="687.798" y="438.487">G</text>
      <text x="683.378" y="432.683">A</text>
      <text x="674.446" y="431.546">A</text>
      <text x="661.126" y="424.649">A</text>
      <text x="647.806" y="417.751">U</text>
      <text x="634.486" y="410.854">G</text>
      <text x="621.165" y="403.957">G</text>
      <text x="607.845" y="397.060">G</text>
      <text x="594.525" y="390.162">C</text>
      <text x="581.205" y="383.265">U</text>
      <text x="582.398" y="375.861">A</text>
      <text x="595.745" y="382.707">C</text>
      <text x="606.380" y="372.129">A</text>
      <text x="599.606" y="358.745">U</text>
      <text x="584.785" y="361.052">U</text>
      <text x="585.978" y="353.647">U</text>
      <text x="600.791" y="351.284">U</text>
      <text x="615.604" y="348.921">C</text>
      <text x="630.416" y="346.558">U</text>
      <text x="645.229" y="344.195">A</text>
      <text x="661.823" y="347.670">A</text>
      <text x="669.756" y="332.687">C</text>
      <text x="657.555" y="320.916">U</text>
      <text x="642.866" y="329.382">U</text>
      <text x="628.053" y="331.745">A</text>
      <text x="613.241" y="334.108">G</text>
      <text x="598.428" y="336.471">A</text>
      <text x="583.615" y="338.835">A</text>
      <text x="581.823" y="331.552">U</text>
      <text x="596.389" y="327.967">A</text>
      <text x="610.954" y="324.383">U</text>
      <text x="625.519" y="320.799">A</text>
      <text x="636.342" y="310.412">C</text>
      <text x="621.935" y="306.233">G</text>
      <text x="607.370" y="309.818">A</text>
      <text x="592.804" y="313.402">A</text>
      <text x="578.239" y="316.986">A</text>
      <text x="576.447" y="309.704">A</text>
      <text x="590.664" y="304.923">A</text>
      <text x="604.882" y="300.142">G</text>
      <text x="619.100" y="295.361">A</text>
      <text x="633.317" y="290.580">A</text>
      <text x="647.535" y="285.799">C</text>
      <text x="659.513" y="295.522">A</text>
      <text x="674.848" y="297.203">U</text>
      <text x="688.648" y="290.306">G</text>
      <text x="696.509" y="277.032">A</text>
      <text x="695.922" y="261.616">A</text>
      <text x="687.075" y="248.977">A</text>
      <text x="672.791" y="243.149">C</text>
      <text x="657.627" y="245.991">C</text>
      <text x="646.423" y="256.597">C</text>
      <text x="642.754" y="271.581">G</text>
      <text x="628.536" y="276.362">U</text>
      <text x="614.319" y="281.143">U</text>
      <text x="600.101" y="285.924">C</text>
      <text x="585.883" y="290.705">U</text>
      <text x="571.666" y="295.486">U</text>
      <text x="583.649" y="286.464">A</text>
      <text x="589.816" y="272.790">G</text>
      <text x="588.645" y="257.836">A</text>
      <text x="580.425" y="245.289">A</text>
      <text x="567.183" y="238.243">G</text>
      <text x="552.184" y="238.435">G</text>
      <text x="539.127" y="245.818">C</text>
      <text x="531.231" y="258.571">G</text>
      <text x="530.443" y="273.551">G</text>
      <text x="536.958" y="287.062">A</text>
      <text x="549.167" y="295.774">U</text>
      <text x="534.832" y="291.358">U</text>
      <text x="520.497" y="286.942">U</text>
      <text x="506.162" y="282.526">A</text>
      <text x="491.826" y="278.110">G</text>
      <text x="492.605" y="271.652">C</text>
      <text x="492.682" y="265.147">A</text>
      <text x="492.057" y="258.672">G</text>
      <text x="490.738" y="252.302">U</text>
      <text x="488.739" y="246.111">A</text>
      <text x="486.085" y="240.172">A</text>
      <text x="498.471" y="231.712">A</text>
      <text x="510.858" y="223.252">G</text>
      <text x="523.244" y="214.792">U</text>
      <text x="535.631" y="206.331">G</text>
      <text x="548.017" y="197.871">A</text>
      <text x="560.404" y="189.411">A</text>
      <text x="573.891" y="196.647">A</text>
      <text x="589.196" y="196.774">U</text>
      <text x="602.802" y="189.764">C</text>
      <text x="611.582" y="177.227">A</text>
      <text x="613.518" y="162.045">U</text>
      <text x="608.167" y="147.706">A</text>
      <text x="596.757" y="137.504">C</text>
      <text x="581.910" y="133.785">C</text>
      <text x="567.038" y="137.403">C</text>
      <text x="555.559" y="147.527">A</text>
      <text x="550.110" y="161.829">G</text>
      <text x="551.943" y="177.025">U</text>
      <text x="539.557" y="185.485">U</text>
      <text x="527.170" y="193.945">C</text>
      <text x="514.784" y="202.405">A</text>
      <text x="502.397" y="210.865">C</text>
      <text x="490.011" y="219.325">U</text>
      <text x="477.624" y="227.786">U</text>
      <text x="469.999" y="220.498">U</text>
      <text x="461.214" y="214.649">A</text>
      <text x="451.537" y="210.418">A</text>
      <text x="441.264" y="207.939">G</text>
      <text x="430.710" y="207.288">C</text>
      <text x="420.197" y="208.489">C</text>
      <text x="410.048" y="211.507">G</text>
      <text x="400.574" y="216.251">G</text>
      <text x="392.068" y="222.579">C</text>
      <text x="384.791" y="230.298">U</text>
      <text x="378.968" y="239.174">C</text>
      <text x="374.780" y="248.936">U</text>
      <text x="360.050" y="246.100">G</text>
      <text x="345.320" y="243.265">A</text>
      <text x="330.591" y="240.430">G</text>
      <text x="315.861" y="237.595">G</text>
      <text x="301.132" y="234.760">C</text>
      <text x="286.402" y="231.924">A</text>
      <text x="271.672" y="229.089">C</text>
      <text x="256.947" y="226.230">G</text>
      <text x="242.227" y="223.348">U</text>
      <text x="236.342" y="219.037">A</text>
      <text x="227.455" y="220.480">C</text>
      <text x="212.725" y="217.645">A</text>
      <text x="209.448" y="210.899">U</text>
      <text x="223.734" y="206.325">A</text>
      <text x="238.019" y="201.752">C</text>
      <text x="252.305" y="197.178">C</text>
      <text x="267.258" y="198.368">G</text>
      <text x="279.454" y="189.636">C</text>
      <text x="283.144" y="175.097">C</text>
      <text x="276.589" y="161.605">C</text>
      <text x="262.878" y="155.520">G</text>
      <text x="248.475" y="159.710">U</text>
      <text x="240.170" y="172.199">C</text>
      <text x="227.744" y="180.601">A</text>
      <text x="215.319" y="189.004">C</text>
      <text x="202.893" y="197.407">C</text>
      <text x="199.616" y="190.661">C</text>
      <text x="206.492" y="177.330">U</text>
      <text x="213.368" y="163.998">C</text>
      <text x="226.571" y="155.280">U</text>
      <text x="225.528" y="140.422">U</text>
      <text x="232.404" y="127.091">C</text>
      <text x="245.607" y="118.373">A</text>
      <text x="244.564" y="103.515">U</text>
      <text x="257.767" y="94.797">A</text>
      <text x="256.724" y="79.939">A</text>
      <text x="263.600" y="66.607">G</text>
      <text x="270.476" y="53.276">C</text>
      <text x="285.501" y="55.142">C</text>
      <text x="300.230" y="51.761">A</text>
      <text x="312.890" y="43.560">C</text>
      <text x="321.963" y="31.545">U</text>
      <text x="326.369" y="17.178">A</text>
      <text x="325.596" y="2.199">C</text>
      <text x="319.755" y="-11.586">C</text>
      <text x="309.571" y="-22.520">A</text>
      <text x="322.715" y="-25.085">C</text>
      <text x="331.878" y="-34.585">C</text>
      <text x="333.906" y="-47.431">A</text>
      <text x="328.286" y="-58.943">A</text>
      <text x="343.568" y="-62.257">U</text>
      <text x="353.104" y="-74.651">A</text>
      <text x="352.390" y="-90.272">A</text>
      <text x="341.765" y="-101.745">A</text>
      <text x="326.244" y="-103.653">U</text>
      <text x="313.156" y="-95.094">A</text>
      <text x="308.682" y="-80.110">A</text>
      <text x="314.933" y="-65.776">U</text>
      <text x="298.678" y="-61.244">A</text>
      <text x="290.627" y="-46.028">U</text>
      <text x="296.239" y="-29.396">U</text>
      <text x="281.426" y="-31.355">C</text>
      <text x="266.808" y="-28.123">C</text>
      <text x="254.155" y="-20.069">C</text>
      <text x="245.003" y="-8.149">C</text>
      <text x="240.474" y="6.209">A</text>
      <text x="241.131" y="21.278">A</text>
      <text x="246.915" y="35.240">A</text>
      <text x="257.145" y="46.400">G</text>
      <text x="250.269" y="59.732">C</text>
      <text x="243.393" y="73.063">U</text>
      <text x="230.683" y="80.827">A</text>
      <text x="231.233" y="96.639">A</text>
      <text x="218.522" y="104.403">A</text>
      <text x="219.073" y="120.215">G</text>
      <text x="212.197" y="133.546">A</text>
      <text x="199.486" y="141.311">C</text>
      <text x="200.037" y="157.122">G</text>
      <text x="193.161" y="170.454">A</text>
      <text x="186.285" y="183.785">G</text>
      <text x="179.121" y="181.565">G</text>
      <text x="183.560" y="167.237">C</text>
      <text x="187.998" y="152.909">A</text>
      <text x="192.437" y="138.581">A</text>
      <text x="196.876" y="124.253">G</text>
      <text x="201.315" y="109.924">U</text>
      <text x="205.753" y="95.596">C</text>
      <text x="210.192" y="81.268">G</text>
      <text x="195.864" y="76.830">U</text>
      <text x="191.425" y="91.157">A</text>
      <text x="186.986" y="105.486">A</text>
      <text x="182.548" y="119.814">C</text>
      <text x="178.109" y="134.142">A</text>
      <text x="173.670" y="148.470">A</text>
      <text x="169.231" y="162.798">G</text>
      <text x="164.793" y="177.127">G</text>
      <text x="157.629" y="174.907">U</text>
      <text x="159.493" y="160.024">A</text>
      <text x="161.358" y="145.140">A</text>
      <text x="163.223" y="130.256">G</text>
      <text x="165.088" y="115.373">U</text>
      <text x="166.952" y="100.489">G</text>
      <text x="168.817" y="85.605">U</text>
      <text x="170.682" y="70.722">A</text>
      <text x="172.547" y="55.838">C</text>
      <text x="174.412" y="40.955">C</text>
      <text x="184.739" y="28.216">G</text>
      <text x="178.619" y="13.002">G</text>
      <text x="162.347" y="10.963">A</text>
      <text x="152.662" y="24.197">A</text>
      <text x="159.528" y="39.090">G</text>
      <text x="157.663" y="53.973">G</text>
      <text x="155.798" y="68.857">U</text>
      <text x="153.934" y="83.741">G</text>
      <text x="152.069" y="98.624">C</text>
      <text x="150.204" y="113.508">A</text>
      <text x="148.339" y="128.392">C</text>
      <text x="146.474" y="143.275">U</text>
      <text x="144.610" y="158.159">U</text>
      <text x="142.745" y="173.043">A</text>
      <text x="135.247" y="172.863">G</text>
      <text x="135.607" y="157.867">A</text>
      <text x="135.966" y="142.871">C</text>
      <text x="136.326" y="127.876">U</text>
      <text x="136.685" y="112.880">A</text>
      <text x="129.499" y="99.713">U</text>
      <text x="121.689" y="112.520">C</text>
    </g>
  </g>
</svg>
