<?xml version="1.0" encoding="UTF-8" standalone="yes"?>
<svg xmlns="http://www.w3.org/2000/svg" height="452" width="452">
<script type="text/ecmascript">
      <![CDATA[
        var shown = 1;
        function click() {
             var seq = document.getElementById("seq");
             if (shown==1) {
               seq.setAttribute("style", "visibility: hidden");
               shown = 0;
             } else {
               seq.setAttribute("style", "visibility: visible");
               shown = 1;
             }
         }
        ]]>
</script>
  <rect style="stroke: white; fill: white" height="452" x="0" y="0" width="452" onclick="click(evt)" />
  <g transform="scale(1.620213,1.620213) translate(21.429008,31.497925)">
    <polyline style="stroke: black; fill: none; stroke-width: 1.5" id="outline" points="
      112.586,-8.043
      111.903,6.942
      111.220,21.926
      110.537,36.911
      109.855,51.895
      109.172,66.879
      108.489,81.864
      92.597,83.400
      79.826,91.574
      72.594,103.979
      57.784,101.599
      42.974,99.219
      28.164,96.838
      15.792,86.075
      0.374,91.663
      -2.228,107.855
      10.662,117.993
      25.784,111.648
      40.594,114.028
      55.404,116.409
      70.214,118.789
      74.437,131.525
      83.802,141.134
      79.102,155.379
      74.402,169.623
      69.702,183.868
      65.002,198.113
      50.410,203.736
      42.892,217.448
      45.998,232.774
      58.261,242.478
      73.890,241.977
      85.507,231.509
      87.626,216.016
      79.246,202.813
      83.946,188.568
      88.647,174.324
      93.347,160.079
      98.047,145.834
      109.332,145.506
      120.069,140.922
      128.662,132.458
      133.724,121.088
      134.300,108.269
      149.297,107.928
      164.293,107.586
      179.289,107.245
      194.285,106.904
      204.470,118.769
      219.908,121.261
      233.309,113.203
      238.346,98.398
      232.640,83.839
      218.886,76.398
      203.578,79.590
      193.943,91.907
      178.947,92.249
      163.951,92.590
      148.955,92.932
      133.959,93.273
      123.474,82.547
      124.157,67.562
      124.839,52.578
      125.522,37.593
      126.205,22.609
      126.887,7.624
      127.570,-7.360
      130.635,-26.498
    " />
    <g style="stroke: black; stroke-width: 1" id="pairs">
      <line id="1,67" x1="112.586" y1="-8.043" x2="127.570" y2="-7.360" />
      <line id="2,66" x1="111.903" y1=" 6.942" x2="126.887" y2=" 7.624" />
      <line id="3,65" x1="111.220" y1="21.926" x2="126.205" y2="22.609" />
      <line id="4,64" x1="110.537" y1="36.911" x2="125.522" y2="37.593" />
      <line id="5,63" x1="109.855" y1="51.895" x2="124.839" y2="52.578" />
      <line id="6,62" x1="109.172" y1="66.879" x2="124.157" y2="67.562" />
      <line id="7,61" x1="108.489" y1="81.864" x2="123.474" y2="82.547" />
      <line id="10,21" x1="72.594" y1="103.979" x2="70.214" y2="118.789" />
      <line id="11,20" x1="57.784" y1="101.599" x2="55.404" y2="116.409" />
      <line id="12,19" x1="42.974" y1="99.219" x2="40.594" y2="114.028" />
      <line id="13,18" x1="28.164" y1="96.838" x2="25.784" y2="111.648" />
      <line id="23,39" x1="83.802" y1="141.134" x2="98.047" y2="145.834" />
      <line id="24,38" x1="79.102" y1="155.379" x2="93.347" y2="160.079" />
      <line id="25,37" x1="74.402" y1="169.623" x2="88.647" y2="174.324" />
      <line id="26,36" x1="69.702" y1="183.868" x2="83.946" y2="188.568" />
      <line id="27,35" x1="65.002" y1="198.113" x2="79.246" y2="202.813" />
      <line id="44,60" x1="134.300" y1="108.269" x2="133.959" y2="93.273" />
      <line id="45,59" x1="149.297" y1="107.928" x2="148.955" y2="92.932" />
      <line id="46,58" x1="164.293" y1="107.586" x2="163.951" y2="92.590" />
      <line id="47,57" x1="179.289" y1="107.245" x2="178.947" y2="92.249" />
      <line id="48,56" x1="194.285" y1="106.904" x2="193.943" y2="91.907" />
    </g>
    <g style="font-family: SansSerif" transform="translate(-4.6, 4)" id="seq">
      <text x="112.586" y="-8.043">G</text>
      <text x="111.903" y="6.942">U</text>
      <text x="111.220" y="21.926">U</text>
      <text x="110.537" y="36.911">C</text>
      <text x="109.855" y="51.895">C</text>
      <text x="109.172" y="66.879">C</text>
      <text x="108.489" y="81.864">G</text>
      <text x="92.597" y="83.400">U</text>
      <text x="79.826" y="91.574">A</text>
      <text x="72.594" y="103.979">G</text>
      <text x="57.784" y="101.599">U</text>
      <text x="42.974" y="99.219">U</text>
      <text x="28.164" y="96.838">G</text>
      <text x="15.792" y="86.075">A</text>
      <text x="0.374" y="91.663">G</text>
      <text x="-2.228" y="107.855">A</text>
      <text x="10.662" y="117.993">A</text>
      <text x="25.784" y="111.648">C</text>
      <text x="40.594" y="114.028">A</text>
      <text x="55.404" y="116.409">A</text>
      <text x="70.214" y="118.789">C</text>
      <text x="74.437" y="131.525">A</text>
      <text x="83.802" y="141.134">A</text>
      <text x="79.102" y="155.379">U</text>
      <text x="74.402" y="169.623">G</text>
      <text x="69.702" y="183.868">G</text>
      <text x="65.002" y="198.113">C</text>
      <text x="50.410" y="203.736">U</text>
      <text x="42.892" y="217.448">U</text>
      <text x="45.998" y="232.774">U</text>
      <text x="58.261" y="242.478">U</text>
      <text x="73.890" y="241.977">C</text>
      <text x="85.507" y="231.509">A</text>
      <text x="87.626" y="216.016">A</text>
      <text x="79.246" y="202.813">G</text>
      <text x="83.946" y="188.568">C</text>
      <text x="88.647" y="174.324">C</text>
      <text x="93.347" y="160.079">G</text>
      <text x="98.047" y="145.834">U</text>
      <text x="109.332" y="145.506">A</text>
      <text x="120.069" y="140.922">G</text>
      <text x="128.662" y="132.458">U</text>
      <text x="133.724" y="121.088">C</text>
      <text x="134.300" y="108.269">C</text>
      <text x="149.297" y="107.928">U</text>
      <text x="164.293" y="107.586">U</text>
      <text x="179.289" y="107.245">G</text>
      <text x="194.285" y="106.904">G</text>
      <text x="204.470" y="118.769">G</text>
      <text x="219.908" y="121.261">G</text>
      <text x="233.309" y="113.203">C</text>
      <text x="238.346" y="98.398">U</text>
      <text x="232.640" y="83.839">A</text>
      <text x="218.886" y="76.398">A</text>
      <text x="203.578" y="79.590">U</text>
      <text x="193.943" y="91.907">C</text>
      <text x="178.947" y="92.249">C</text>
      <text x="163.951" y="92.590">A</text>
      <text x="148.955" y="92.932">A</text>
      <text x="133.959" y="93.273">G</text>
      <text x="123.474" y="82.547">C</text>
      <text x="124.157" y="67.562">G</text>
      <text x="124.839" y="52.578">G</text>
      <text x="125.522" y="37.593">G</text>
      <text x="126.205" y="22.609">A</text>
      <text x="126.887" y="7.624">A</text>
      <text x="127.570" y="-7.360">U</text>
      <text x="130.635" y="-26.498">A</text>
    </g>
  </g>
</svg>
