<?xml version="1.0" encoding="UTF-8" standalone="yes"?>
<svg xmlns="http://www.w3.org/2000/svg" height="452" width="452">
<script type="text/ecmascript">
      <![CDATA[
        var shown = 1;
        function click() {
             var seq = document.getElementById("seq");
             if (shown==1) {
               seq.setAttribute("style", "visibility: hidden");
               shown = 0;
             } else {
               seq.setAttribute("style", "visibility: visible");
               shown = 1;
             }
         }
        ]]>
</script>
  <rect style="stroke: white; fill: white" height="452" x="0" y="0" width="452" onclick="click(evt)" />
  <g transform="scale(1.588723,1.588723) translate(48.713982,38.926941)">
    <polyline style="stroke: black; fill: none; stroke-width: 1.5" id="outline" points="
      110.132,-15.472
      109.449,-0.487
      108.766,14.497
      108.084,29.482
      99.775,41.843
      106.876,55.981
      106.194,70.966
      89.202,73.994
      76.396,84.203
      70.356,98.474
      55.360,98.133
      40.364,97.792
      25.367,97.450
      15.733,85.133
      0.425,81.941
      -13.329,89.382
      -19.035,103.941
      -13.998,118.745
      -0.597,126.804
      14.841,124.312
      25.026,112.446
      40.022,112.788
      55.018,113.129
      70.014,113.471
      77.526,127.641
      91.150,136.102
      90.468,151.086
      89.785,166.071
      89.102,181.055
      88.420,196.040
      75.886,205.391
      72.347,220.623
      79.472,234.543
      93.898,240.578
      108.813,235.880
      117.175,222.665
      115.035,207.175
      103.404,196.722
      104.087,181.738
      104.769,166.753
      105.452,151.769
      106.135,136.785
      116.153,134.096
      125.029,128.064
      131.647,119.166
      135.089,108.247
      134.751,96.445
      149.561,94.064
      159.191,106.029
      173.520,111.560
      188.692,109.171
      200.626,99.503
      206.112,85.157
      203.675,69.993
      193.970,58.089
      179.607,52.648
      164.451,55.132
      152.577,64.875
      147.181,79.255
      132.371,81.635
      121.178,71.649
      121.861,56.664
      130.218,43.230
      123.068,30.164
      123.751,15.180
      124.434,0.195
      125.116,-14.789
      128.181,-33.927
    " />
    <g style="stroke: black; stroke-width: 1" id="pairs">
      <line id="1,67" x1="110.132" y1="-15.472" x2="125.116" y2="-14.789" />
      <line id="2,66" x1="109.449" y1="-0.487" x2="124.434" y2=" 0.195" />
      <line id="3,65" x1="108.766" y1="14.497" x2="123.751" y2="15.180" />
      <line id="4,64" x1="108.084" y1="29.482" x2="123.068" y2="30.164" />
      <line id="6,62" x1="106.876" y1="55.981" x2="121.861" y2="56.664" />
      <line id="7,61" x1="106.194" y1="70.966" x2="121.178" y2="71.649" />
      <line id="10,24" x1="70.356" y1="98.474" x2="70.014" y2="113.471" />
      <line id="11,23" x1="55.360" y1="98.133" x2="55.018" y2="113.129" />
      <line id="12,22" x1="40.364" y1="97.792" x2="40.022" y2="112.788" />
      <line id="13,21" x1="25.367" y1="97.450" x2="25.026" y2="112.446" />
      <line id="26,42" x1="91.150" y1="136.102" x2="106.135" y2="136.785" />
      <line id="27,41" x1="90.468" y1="151.086" x2="105.452" y2="151.769" />
      <line id="28,40" x1="89.785" y1="166.071" x2="104.769" y2="166.753" />
      <line id="29,39" x1="89.102" y1="181.055" x2="104.087" y2="181.738" />
      <line id="30,38" x1="88.420" y1="196.040" x2="103.404" y2="196.722" />
      <line id="47,60" x1="134.751" y1="96.445" x2="132.371" y2="81.635" />
      <line id="48,59" x1="149.561" y1="94.064" x2="147.181" y2="79.255" />
    </g>
    <g style="font-family: SansSerif" transform="translate(-4.6, 4)" id="seq">
      <text x="110.132" y="-15.472">G</text>
      <text x="109.449" y="-0.487">C</text>
      <text x="108.766" y="14.497">C</text>
      <text x="108.084" y="29.482">C</text>
      <text x="99.775" y="41.843">A</text>
      <text x="106.876" y="55.981">C</text>
      <text x="106.194" y="70.966">A</text>
      <text x="89.202" y="73.994">U</text>
      <text x="76.396" y="84.203">A</text>
      <text x="70.356" y="98.474">G</text>
      <text x="55.360" y="98.133">C</text>
      <text x="40.364" y="97.792">U</text>
      <text x="25.367" y="97.450">U</text>
      <text x="15.733" y="85.133">A</text>
      <text x="0.425" y="81.941">A</text>
      <text x="-13.329" y="89.382">C</text>
      <text x="-19.035" y="103.941">C</text>
      <text x="-13.998" y="118.745">A</text>
      <text x="-0.597" y="126.804">U</text>
      <text x="14.841" y="124.312">A</text>
      <text x="25.026" y="112.446">A</text>
      <text x="40.022" y="112.788">A</text>
      <text x="55.018" y="113.129">G</text>
      <text x="70.014" y="113.471">C</text>
      <text x="77.526" y="127.641">A</text>
      <text x="91.150" y="136.102">U</text>
      <text x="90.468" y="151.086">G</text>
      <text x="89.785" y="166.071">G</text>
      <text x="89.102" y="181.055">C</text>
      <text x="88.420" y="196.040">A</text>
      <text x="75.886" y="205.391">C</text>
      <text x="72.347" y="220.623">U</text>
      <text x="79.472" y="234.543">G</text>
      <text x="93.898" y="240.578">A</text>
      <text x="108.813" y="235.880">A</text>
      <text x="117.175" y="222.665">G</text>
      <text x="115.035" y="207.175">A</text>
      <text x="103.404" y="196.722">U</text>
      <text x="104.087" y="181.738">G</text>
      <text x="104.769" y="166.753">C</text>
      <text x="105.452" y="151.769">C</text>
      <text x="106.135" y="136.785">A</text>
      <text x="116.153" y="134.096">A</text>
      <text x="125.029" y="128.064">G</text>
      <text x="131.647" y="119.166">A</text>
      <text x="135.089" y="108.247">U</text>
      <text x="134.751" y="96.445">G</text>
      <text x="149.561" y="94.064">G</text>
      <text x="159.191" y="106.029">C</text>
      <text x="173.520" y="111.560">A</text>
      <text x="188.692" y="109.171">C</text>
      <text x="200.626" y="99.503">U</text>
      <text x="206.112" y="85.157">A</text>
      <text x="203.675" y="69.993">A</text>
      <text x="193.970" y="58.089">U</text>
      <text x="179.607" y="52.648">C</text>
      <text x="164.451" y="55.132">C</text>
      <text x="152.577" y="64.875">A</text>
      <text x="147.181" y="79.255">C</text>
      <text x="132.371" y="81.635">C</text>
      <text x="121.178" y="71.649">U</text>
      <text x="121.861" y="56.664">G</text>
      <text x="130.218" y="43.230">C</text>
      <text x="123.068" y="30.164">G</text>
      <text x="123.751" y="15.180">G</text>
      <text x="124.434" y="0.195">G</text>
      <text x="125.116" y="-14.789">C</text>
      <text x="128.181" y="-33.927">A</text>
    </g>
  </g>
</svg>
