<?xml version="1.0" encoding="UTF-8" standalone="yes"?>
<svg xmlns="http://www.w3.org/2000/svg" height="452" width="452">
<script type="text/ecmascript">
      <![CDATA[
        var shown = 1;
        function click() {
             var seq = document.getElementById("seq");
             if (shown==1) {
               seq.setAttribute("style", "visibility: hidden");
               shown = 0;
             } else {
               seq.setAttribute("style", "visibility: visible");
               shown = 1;
             }
         }
        ]]>
</script>
  <rect style="stroke: white; fill: white" height="452" x="0" y="0" width="452" onclick="click(evt)" />
  <g transform="scale(1.665671,1.665671) translate(15.693398,23.888062)">
    <polyline style="stroke: black; fill: none; stroke-width: 1.5" id="outline" points="
      112.438,-0.410
      111.774,14.575
      111.111,29.561
      110.447,44.546
      109.784,59.531
      109.120,74.517
      108.457,89.502
      92.546,91.058
      79.779,99.271
      72.581,111.715
      57.761,109.401
      42.940,107.087
      35.012,93.608
      20.257,88.428
      5.643,93.992
      -1.930,107.673
      1.113,123.011
      13.336,132.765
      28.967,132.328
      40.626,121.908
      55.447,124.221
      70.267,126.535
      74.576,139.282
      84.041,148.846
      70.272,156.128
      65.839,170.682
      72.866,183.764
      68.294,198.050
      53.754,203.804
      46.359,217.583
      49.602,232.881
      61.952,242.474
      77.576,241.833
      89.098,231.261
      91.078,215.749
      82.580,202.622
      87.152,188.336
      100.470,181.765
      105.310,167.342
      98.328,153.418
      109.539,153.004
      120.183,148.385
      128.689,139.938
      133.695,128.626
      134.263,115.885
      149.259,115.553
      164.255,115.221
      179.252,114.890
      194.248,114.558
      203.537,126.988
      218.367,131.552
      233.037,126.495
      241.906,113.762
      241.562,98.249
      232.139,85.920
      217.260,81.517
      202.646,86.733
      193.916,99.562
      178.920,99.893
      163.923,100.225
      148.927,100.557
      133.931,100.889
      123.442,90.166
      124.106,75.180
      124.769,60.195
      125.433,45.210
      126.096,30.224
      126.760,15.239
      127.423,0.254
      130.464,-18.888
    " />
    <g style="stroke: black; stroke-width: 1" id="pairs">
      <line id="1,69" x1="112.438" y1="-0.410" x2="127.423" y2=" 0.254" />
      <line id="2,68" x1="111.774" y1="14.575" x2="126.760" y2="15.239" />
      <line id="3,67" x1="111.111" y1="29.561" x2="126.096" y2="30.224" />
      <line id="4,66" x1="110.447" y1="44.546" x2="125.433" y2="45.210" />
      <line id="5,65" x1="109.784" y1="59.531" x2="124.769" y2="60.195" />
      <line id="6,64" x1="109.120" y1="74.517" x2="124.106" y2="75.180" />
      <line id="7,63" x1="108.457" y1="89.502" x2="123.442" y2="90.166" />
      <line id="10,22" x1="72.581" y1="111.715" x2="70.267" y2="126.535" />
      <line id="11,21" x1="57.761" y1="109.401" x2="55.447" y2="124.221" />
      <line id="12,20" x1="42.940" y1="107.087" x2="40.626" y2="121.908" />
      <line id="24,40" x1="84.041" y1="148.846" x2="98.328" y2="153.418" />
      <line id="27,37" x1="72.866" y1="183.764" x2="87.152" y2="188.336" />
      <line id="28,36" x1="68.294" y1="198.050" x2="82.580" y2="202.622" />
      <line id="45,62" x1="134.263" y1="115.885" x2="133.931" y2="100.889" />
      <line id="46,61" x1="149.259" y1="115.553" x2="148.927" y2="100.557" />
      <line id="47,60" x1="164.255" y1="115.221" x2="163.923" y2="100.225" />
      <line id="48,59" x1="179.252" y1="114.890" x2="178.920" y2="99.893" />
      <line id="49,58" x1="194.248" y1="114.558" x2="193.916" y2="99.562" />
    </g>
    <g style="font-family: SansSerif" transform="translate(-4.6, 4)" id="seq">
      <text x="112.438" y="-0.410">G</text>
      <text x="111.774" y="14.575">C</text>
      <text x="111.111" y="29.561">U</text>
      <text x="110.447" y="44.546">C</text>
      <text x="109.784" y="59.531">U</text>
      <text x="109.120" y="74.517">U</text>
      <text x="108.457" y="89.502">C</text>
      <text x="92.546" y="91.058">U</text>
      <text x="79.779" y="99.271">A</text>
      <text x="72.581" y="111.715">G</text>
      <text x="57.761" y="109.401">U</text>
      <text x="42.940" y="107.087">A</text>
      <text x="35.012" y="93.608">U</text>
      <text x="20.257" y="88.428">A</text>
      <text x="5.643" y="93.992">C</text>
      <text x="-1.930" y="107.673">U</text>
      <text x="1.113" y="123.011">U</text>
      <text x="13.336" y="132.765">A</text>
      <text x="28.967" y="132.328">U</text>
      <text x="40.626" y="121.908">U</text>
      <text x="55.447" y="124.221">A</text>
      <text x="70.267" y="126.535">C</text>
      <text x="74.576" y="139.282">A</text>
      <text x="84.041" y="148.846">A</text>
      <text x="70.272" y="156.128">U</text>
      <text x="65.839" y="170.682">U</text>
      <text x="72.866" y="183.764">G</text>
      <text x="68.294" y="198.050">A</text>
      <text x="53.754" y="203.804">C</text>
      <text x="46.359" y="217.583">U</text>
      <text x="49.602" y="232.881">U</text>
      <text x="61.952" y="242.474">C</text>
      <text x="77.576" y="241.833">C</text>
      <text x="89.098" y="231.261">A</text>
      <text x="91.078" y="215.749">A</text>
      <text x="82.580" y="202.622">U</text>
      <text x="87.152" y="188.336">C</text>
      <text x="100.470" y="181.765">U</text>
      <text x="105.310" y="167.342">C</text>
      <text x="98.328" y="153.418">U</text>
      <text x="109.539" y="153.004">A</text>
      <text x="120.183" y="148.385">A</text>
      <text x="128.689" y="139.938">A</text>
      <text x="133.695" y="128.626">A</text>
      <text x="134.263" y="115.885">U</text>
      <text x="149.259" y="115.553">C</text>
      <text x="164.255" y="115.221">U</text>
      <text x="179.252" y="114.890">G</text>
      <text x="194.248" y="114.558">G</text>
      <text x="203.537" y="126.988">U</text>
      <text x="218.367" y="131.552">A</text>
      <text x="233.037" y="126.495">C</text>
      <text x="241.906" y="113.762">C</text>
      <text x="241.562" y="98.249">C</text>
      <text x="232.139" y="85.920">A</text>
      <text x="217.260" y="81.517">G</text>
      <text x="202.646" y="86.733">C</text>
      <text x="193.916" y="99.562">C</text>
      <text x="178.920" y="99.893">C</text>
      <text x="163.923" y="100.225">A</text>
      <text x="148.927" y="100.557">G</text>
      <text x="133.931" y="100.889">A</text>
      <text x="123.442" y="90.166">G</text>
      <text x="124.106" y="75.180">A</text>
      <text x="124.769" y="60.195">A</text>
      <text x="125.433" y="45.210">G</text>
      <text x="126.096" y="30.224">A</text>
      <text x="126.760" y="15.239">G</text>
      <text x="127.423" y="0.254">C</text>
      <text x="130.464" y="-18.888">A</text>
    </g>
  </g>
</svg>
