<?xml version="1.0" encoding="UTF-8" standalone="yes"?>
<svg xmlns="http://www.w3.org/2000/svg" height="452" width="452">
<script type="text/ecmascript">
      <![CDATA[
        var shown = 1;
        function click() {
             var seq = document.getElementById("seq");
             if (shown==1) {
               seq.setAttribute("style", "visibility: hidden");
               shown = 0;
             } else {
               seq.setAttribute("style", "visibility: visible");
               shown = 1;
             }
         }
        ]]>
</script>
  <rect style="stroke: white; fill: white" height="452" x="0" y="0" width="452" onclick="click(evt)" />
  <g transform="scale(1.573991,1.573991) translate(38.513100,40.568138)">
    <polyline style="stroke: black; fill: none; stroke-width: 1.5" id="outline" points="
      98.022,-17.101
      97.349,-2.116
      89.049,10.251
      96.159,24.384
      95.486,39.369
      94.813,54.354
      94.140,69.339
      81.649,73.722
      71.486,82.206
      64.943,93.715
      50.079,91.701
      35.215,89.688
      20.350,87.674
      9.527,75.832
      -6.470,77.055
      -15.368,90.404
      -10.342,105.640
      4.753,111.074
      18.337,102.538
      33.201,104.552
      48.065,106.565
      62.930,108.579
      68.989,126.502
      83.088,139.118
      79.098,153.578
      75.107,168.037
      71.117,182.496
      67.126,196.956
      52.830,203.293
      45.999,217.360
      49.858,232.514
      62.586,241.600
      78.171,240.328
      89.257,229.298
      90.607,213.719
      81.586,200.946
      85.576,186.487
      89.567,172.028
      93.557,157.568
      97.548,143.109
      106.666,142.587
      115.381,139.857
      123.168,135.083
      129.554,128.554
      134.155,120.665
      136.693,111.892
      151.678,111.219
      166.663,110.546
      181.648,109.873
      192.093,121.510
      207.582,123.660
      220.801,115.307
      225.510,100.395
      219.484,85.965
      205.568,78.831
      190.334,82.361
      180.975,94.888
      165.990,95.561
      151.005,96.234
      136.020,96.907
      126.275,79.757
      109.125,70.012
      109.798,55.027
      110.471,40.042
      111.144,25.057
      119.493,11.618
      112.334,-1.443
      113.007,-16.428
      116.060,-35.568
    " />
    <g style="stroke: black; stroke-width: 1" id="pairs">
      <line id="1,68" x1="98.022" y1="-17.101" x2="113.007" y2="-16.428" />
      <line id="2,67" x1="97.349" y1="-2.116" x2="112.334" y2="-1.443" />
      <line id="4,65" x1="96.159" y1="24.384" x2="111.144" y2="25.057" />
      <line id="5,64" x1="95.486" y1="39.369" x2="110.471" y2="40.042" />
      <line id="6,63" x1="94.813" y1="54.354" x2="109.798" y2="55.027" />
      <line id="7,62" x1="94.140" y1="69.339" x2="109.125" y2="70.012" />
      <line id="10,22" x1="64.943" y1="93.715" x2="62.930" y2="108.579" />
      <line id="11,21" x1="50.079" y1="91.701" x2="48.065" y2="106.565" />
      <line id="12,20" x1="35.215" y1="89.688" x2="33.201" y2="104.552" />
      <line id="13,19" x1="20.350" y1="87.674" x2="18.337" y2="102.538" />
      <line id="24,40" x1="83.088" y1="139.118" x2="97.548" y2="143.109" />
      <line id="25,39" x1="79.098" y1="153.578" x2="93.557" y2="157.568" />
      <line id="26,38" x1="75.107" y1="168.037" x2="89.567" y2="172.028" />
      <line id="27,37" x1="71.117" y1="182.496" x2="85.576" y2="186.487" />
      <line id="28,36" x1="67.126" y1="196.956" x2="81.586" y2="200.946" />
      <line id="46,60" x1="136.693" y1="111.892" x2="136.020" y2="96.907" />
      <line id="47,59" x1="151.678" y1="111.219" x2="151.005" y2="96.234" />
      <line id="48,58" x1="166.663" y1="110.546" x2="165.990" y2="95.561" />
      <line id="49,57" x1="181.648" y1="109.873" x2="180.975" y2="94.888" />
    </g>
    <g style="font-family: SansSerif" transform="translate(-4.6, 4)" id="seq">
      <text x="98.022" y="-17.101">G</text>
      <text x="97.349" y="-2.116">U</text>
      <text x="89.049" y="10.251">A</text>
      <text x="96.159" y="24.384">A</text>
      <text x="95.486" y="39.369">G</text>
      <text x="94.813" y="54.354">C</text>
      <text x="94.140" y="69.339">A</text>
      <text x="81.649" y="73.722">U</text>
      <text x="71.486" y="82.206">A</text>
      <text x="64.943" y="93.715">G</text>
      <text x="50.079" y="91.701">U</text>
      <text x="35.215" y="89.688">U</text>
      <text x="20.350" y="87.674">U</text>
      <text x="9.527" y="75.832">A</text>
      <text x="-6.470" y="77.055">A</text>
      <text x="-15.368" y="90.404">C</text>
      <text x="-10.342" y="105.640">C</text>
      <text x="4.753" y="111.074">A</text>
      <text x="18.337" y="102.538">A</text>
      <text x="33.201" y="104.552">A</text>
      <text x="48.065" y="106.565">A</text>
      <text x="62.930" y="108.579">C</text>
      <text x="68.989" y="126.502">A</text>
      <text x="83.088" y="139.118">U</text>
      <text x="79.098" y="153.578">U</text>
      <text x="75.107" y="168.037">A</text>
      <text x="71.117" y="182.496">G</text>
      <text x="67.126" y="196.956">A</text>
      <text x="52.830" y="203.293">U</text>
      <text x="45.999" y="217.360">U</text>
      <text x="49.858" y="232.514">G</text>
      <text x="62.586" y="241.600">U</text>
      <text x="78.171" y="240.328">G</text>
      <text x="89.257" y="229.298">A</text>
      <text x="90.607" y="213.719">U</text>
      <text x="81.586" y="200.946">U</text>
      <text x="85.576" y="186.487">C</text>
      <text x="89.567" y="172.028">U</text>
      <text x="93.557" y="157.568">A</text>
      <text x="97.548" y="143.109">A</text>
      <text x="106.666" y="142.587">A</text>
      <text x="115.381" y="139.857">G</text>
      <text x="123.168" y="135.083">A</text>
      <text x="129.554" y="128.554">C</text>
      <text x="134.155" y="120.665">A</text>
      <text x="136.693" y="111.892">G</text>
      <text x="151.678" y="111.219">G</text>
      <text x="166.663" y="110.546">A</text>
      <text x="181.648" y="109.873">G</text>
      <text x="192.093" y="121.510">U</text>
      <text x="207.582" y="123.660">U</text>
      <text x="220.801" y="115.307">U</text>
      <text x="225.510" y="100.395">A</text>
      <text x="219.484" y="85.965">A</text>
      <text x="205.568" y="78.831">A</text>
      <text x="190.334" y="82.361">C</text>
      <text x="180.975" y="94.888">C</text>
      <text x="165.990" y="95.561">U</text>
      <text x="151.005" y="96.234">C</text>
      <text x="136.020" y="96.907">C</text>
      <text x="126.275" y="79.757">C</text>
      <text x="109.125" y="70.012">U</text>
      <text x="109.798" y="55.027">G</text>
      <text x="110.471" y="40.042">C</text>
      <text x="111.144" y="25.057">U</text>
      <text x="119.493" y="11.618">C</text>
      <text x="112.334" y="-1.443">A</text>
      <text x="113.007" y="-16.428">C</text>
      <text x="116.060" y="-35.568">C</text>
    </g>
  </g>
</svg>
