<?xml version="1.0" encoding="UTF-8" standalone="yes"?>
<svg xmlns="http://www.w3.org/2000/svg" height="452" width="452">
<script type="text/ecmascript">
      <![CDATA[
        var shown = 1;
        function click() {
             var seq = document.getElementById("seq");
             if (shown==1) {
               seq.setAttribute("style", "visibility: hidden");
               shown = 0;
             } else {
               seq.setAttribute("style", "visibility: visible");
               shown = 1;
             }
         }
        ]]>
</script>
  <rect style="stroke: white; fill: white" height="452" x="0" y="0" width="452" onclick="click(evt)" />
  <g transform="scale(1.651684,1.651684) translate(13.684212,29.950371)">
    <polyline style="stroke: black; fill: none; stroke-width: 1.5" id="outline" points="
      112.541,-6.461
      111.887,8.525
      111.233,23.510
      110.579,38.496
      109.924,53.482
      101.639,65.859
      108.767,79.984
      93.056,81.335
      80.340,89.244
      73.013,101.385
      58.240,98.780
      43.468,96.176
      35.807,82.543
      21.157,77.074
      6.436,82.349
      -1.405,95.879
      1.336,111.274
      13.365,121.266
      29.002,121.137
      40.864,110.948
      55.636,113.552
      70.408,116.157
      74.288,128.604
      83.127,138.188
      77.997,152.283
      72.867,166.379
      67.736,180.474
      62.606,194.569
      47.851,199.747
      39.920,213.225
      42.559,228.638
      54.522,238.710
      70.159,238.684
      82.088,228.573
      84.677,213.151
      76.702,199.700
      81.832,185.604
      86.962,171.509
      92.092,157.414
      97.223,143.318
      108.530,143.282
      119.385,138.931
      128.150,130.618
      133.396,119.307
      134.126,106.474
      149.126,106.474
      164.126,106.474
      179.126,106.474
      194.126,106.474
      202.380,119.507
      216.379,125.989
      231.658,123.850
      243.339,113.773
      247.697,98.974
      243.339,84.175
      231.658,74.098
      216.379,71.959
      202.380,78.440
      194.126,91.474
      179.126,91.474
      164.126,91.474
      149.126,91.474
      134.126,91.474
      123.753,80.638
      132.085,67.189
      124.910,54.136
      125.564,39.150
      126.219,24.165
      126.873,9.179
      127.527,-5.807
      130.556,-24.950
    " />
    <g style="stroke: black; stroke-width: 1" id="pairs">
      <line id="1,70" x1="112.541" y1="-6.461" x2="127.527" y2="-5.807" />
      <line id="2,69" x1="111.887" y1=" 8.525" x2="126.873" y2=" 9.179" />
      <line id="3,68" x1="111.233" y1="23.510" x2="126.219" y2="24.165" />
      <line id="4,67" x1="110.579" y1="38.496" x2="125.564" y2="39.150" />
      <line id="5,66" x1="109.924" y1="53.482" x2="124.910" y2="54.136" />
      <line id="7,64" x1="108.767" y1="79.984" x2="123.753" y2="80.638" />
      <line id="10,22" x1="73.013" y1="101.385" x2="70.408" y2="116.157" />
      <line id="11,21" x1="58.240" y1="98.780" x2="55.636" y2="113.552" />
      <line id="12,20" x1="43.468" y1="96.176" x2="40.864" y2="110.948" />
      <line id="24,40" x1="83.127" y1="138.188" x2="97.223" y2="143.318" />
      <line id="25,39" x1="77.997" y1="152.283" x2="92.092" y2="157.414" />
      <line id="26,38" x1="72.867" y1="166.379" x2="86.962" y2="171.509" />
      <line id="27,37" x1="67.736" y1="180.474" x2="81.832" y2="185.604" />
      <line id="28,36" x1="62.606" y1="194.569" x2="76.702" y2="199.700" />
      <line id="45,63" x1="134.126" y1="106.474" x2="134.126" y2="91.474" />
      <line id="46,62" x1="149.126" y1="106.474" x2="149.126" y2="91.474" />
      <line id="47,61" x1="164.126" y1="106.474" x2="164.126" y2="91.474" />
      <line id="48,60" x1="179.126" y1="106.474" x2="179.126" y2="91.474" />
      <line id="49,59" x1="194.126" y1="106.474" x2="194.126" y2="91.474" />
    </g>
    <g style="font-family: SansSerif" transform="translate(-4.6, 4)" id="seq">
      <text x="112.541" y="-6.461">G</text>
      <text x="111.887" y="8.525">G</text>
      <text x="111.233" y="23.510">A</text>
      <text x="110.579" y="38.496">A</text>
      <text x="109.924" y="53.482">G</text>
      <text x="101.639" y="65.859">C</text>
      <text x="108.767" y="79.984">G</text>
      <text x="93.056" y="81.335">U</text>
      <text x="80.340" y="89.244">G</text>
      <text x="73.013" y="101.385">C</text>
      <text x="58.240" y="98.780">C</text>
      <text x="43.468" y="96.176">U</text>
      <text x="35.807" y="82.543">G</text>
      <text x="21.157" y="77.074">A</text>
      <text x="6.436" y="82.349">A</text>
      <text x="-1.405" y="95.879">U</text>
      <text x="1.336" y="111.274">A</text>
      <text x="13.365" y="121.266">U</text>
      <text x="29.002" y="121.137">A</text>
      <text x="40.864" y="110.948">A</text>
      <text x="55.636" y="113.552">G</text>
      <text x="70.408" y="116.157">G</text>
      <text x="74.288" y="128.604">A</text>
      <text x="83.127" y="138.188">U</text>
      <text x="77.997" y="152.283">C</text>
      <text x="72.867" y="166.379">A</text>
      <text x="67.736" y="180.474">C</text>
      <text x="62.606" y="194.569">U</text>
      <text x="47.851" y="199.747">A</text>
      <text x="39.920" y="213.225">U</text>
      <text x="42.559" y="228.638">G</text>
      <text x="54.522" y="238.710">A</text>
      <text x="70.159" y="238.684">U</text>
      <text x="82.088" y="228.573">A</text>
      <text x="84.677" y="213.151">A</text>
      <text x="76.702" y="199.700">A</text>
      <text x="81.832" y="185.604">G</text>
      <text x="86.962" y="171.509">U</text>
      <text x="92.092" y="157.414">G</text>
      <text x="97.223" y="143.318">A</text>
      <text x="108.530" y="143.282">G</text>
      <text x="119.385" y="138.931">C</text>
      <text x="128.150" y="130.618">A</text>
      <text x="133.396" y="119.307">U</text>
      <text x="134.126" y="106.474">A</text>
      <text x="149.126" y="106.474">G</text>
      <text x="164.126" y="106.474">A</text>
      <text x="179.126" y="106.474">G</text>
      <text x="194.126" y="106.474">G</text>
      <text x="202.380" y="119.507">U</text>
      <text x="216.379" y="125.989">A</text>
      <text x="231.658" y="123.850">A</text>
      <text x="243.339" y="113.773">A</text>
      <text x="247.697" y="98.974">A</text>
      <text x="243.339" y="84.175">C</text>
      <text x="231.658" y="74.098">A</text>
      <text x="216.379" y="71.959">A</text>
      <text x="202.380" y="78.440">U</text>
      <text x="194.126" y="91.474">C</text>
      <text x="179.126" y="91.474">C</text>
      <text x="164.126" y="91.474">U</text>
      <text x="149.126" y="91.474">C</text>
      <text x="134.126" y="91.474">U</text>
      <text x="123.753" y="80.638">C</text>
      <text x="132.085" y="67.189">A</text>
      <text x="124.910" y="54.136">C</text>
      <text x="125.564" y="39.150">U</text>
      <text x="126.219" y="24.165">U</text>
      <text x="126.873" y="9.179">C</text>
      <text x="127.527" y="-5.807">C</text>
      <text x="130.556" y="-24.950">U</text>
    </g>
  </g>
</svg>
