<?xml version="1.0" encoding="UTF-8" standalone="yes"?>
<svg xmlns="http://www.w3.org/2000/svg" height="452" width="452">
<script type="text/ecmascript">
      <![CDATA[
        var shown = 1;
        function click() {
             var seq = document.getElementById("seq");
             if (shown==1) {
               seq.setAttribute("style", "visibility: hidden");
               shown = 0;
             } else {
               seq.setAttribute("style", "visibility: visible");
               shown = 1;
             }
         }
        ]]>
</script>
  <rect style="stroke: white; fill: white" height="452" x="0" y="0" width="452" onclick="click(evt)" />
  <g transform="scale(1.579503,1.579503) translate(32.738022,37.584496)">
    <polyline style="stroke: black; fill: none; stroke-width: 1.5" id="outline" points="
      111.105,-14.129
      110.422,0.855
      109.739,15.839
      109.057,30.824
      108.374,45.808
      107.691,60.793
      107.009,75.777
      90.339,78.279
      77.486,87.810
      70.993,101.495
      56.028,100.472
      41.063,99.448
      32.935,86.230
      18.577,80.346
      3.510,84.057
      -6.472,95.937
      -7.531,111.418
      0.740,124.547
      15.161,130.276
      30.187,126.401
      40.039,114.413
      55.004,115.437
      69.969,116.460
      76.323,130.260
      88.541,139.288
      86.498,154.148
      84.456,169.009
      82.413,183.869
      80.371,198.729
      67.039,206.902
      62.129,221.749
      67.959,236.259
      81.777,243.581
      97.057,240.259
      106.586,227.859
      105.863,212.239
      95.231,200.772
      97.274,185.911
      99.316,171.051
      101.359,156.191
      103.401,141.330
      113.928,139.363
      123.469,133.736
      130.755,124.910
      134.721,113.782
      134.659,101.601
      149.562,99.898
      164.465,98.194
      179.368,96.490
      194.271,94.786
      207.674,103.603
      222.879,98.484
      228.221,83.356
      219.603,69.825
      203.635,68.270
      192.567,79.884
      177.664,81.587
      162.761,83.291
      147.859,84.995
      132.956,86.698
      121.993,76.460
      122.676,61.476
      123.358,46.491
      124.041,31.507
      124.724,16.522
      125.407,1.538
      126.089,-13.447
      129.154,-32.585
    " />
    <g style="stroke: black; stroke-width: 1" id="pairs">
      <line id="1,67" x1="111.105" y1="-14.129" x2="126.089" y2="-13.447" />
      <line id="2,66" x1="110.422" y1=" 0.855" x2="125.407" y2=" 1.538" />
      <line id="3,65" x1="109.739" y1="15.839" x2="124.724" y2="16.522" />
      <line id="4,64" x1="109.057" y1="30.824" x2="124.041" y2="31.507" />
      <line id="5,63" x1="108.374" y1="45.808" x2="123.358" y2="46.491" />
      <line id="6,62" x1="107.691" y1="60.793" x2="122.676" y2="61.476" />
      <line id="7,61" x1="107.009" y1="75.777" x2="121.993" y2="76.460" />
      <line id="10,23" x1="70.993" y1="101.495" x2="69.969" y2="116.460" />
      <line id="11,22" x1="56.028" y1="100.472" x2="55.004" y2="115.437" />
      <line id="12,21" x1="41.063" y1="99.448" x2="40.039" y2="114.413" />
      <line id="25,41" x1="88.541" y1="139.288" x2="103.401" y2="141.330" />
      <line id="26,40" x1="86.498" y1="154.148" x2="101.359" y2="156.191" />
      <line id="27,39" x1="84.456" y1="169.009" x2="99.316" y2="171.051" />
      <line id="28,38" x1="82.413" y1="183.869" x2="97.274" y2="185.911" />
      <line id="29,37" x1="80.371" y1="198.729" x2="95.231" y2="200.772" />
      <line id="46,60" x1="134.659" y1="101.601" x2="132.956" y2="86.698" />
      <line id="47,59" x1="149.562" y1="99.898" x2="147.859" y2="84.995" />
      <line id="48,58" x1="164.465" y1="98.194" x2="162.761" y2="83.291" />
      <line id="49,57" x1="179.368" y1="96.490" x2="177.664" y2="81.587" />
      <line id="50,56" x1="194.271" y1="94.786" x2="192.567" y2="79.884" />
    </g>
    <g style="font-family: SansSerif" transform="translate(-4.6, 4)" id="seq">
      <text x="111.105" y="-14.129">C</text>
      <text x="110.422" y="0.855">A</text>
      <text x="109.739" y="15.839">U</text>
      <text x="109.057" y="30.824">U</text>
      <text x="108.374" y="45.808">A</text>
      <text x="107.691" y="60.793">A</text>
      <text x="107.009" y="75.777">G</text>
      <text x="90.339" y="78.279">A</text>
      <text x="77.486" y="87.810">A</text>
      <text x="70.993" y="101.495">G</text>
      <text x="56.028" y="100.472">C</text>
      <text x="41.063" y="99.448">U</text>
      <text x="32.935" y="86.230">A</text>
      <text x="18.577" y="80.346">U</text>
      <text x="3.510" y="84.057">G</text>
      <text x="-6.472" y="95.937">U</text>
      <text x="-7.531" y="111.418">A</text>
      <text x="0.740" y="124.547">A</text>
      <text x="15.161" y="130.276">C</text>
      <text x="30.187" y="126.401">C</text>
      <text x="40.039" y="114.413">A</text>
      <text x="55.004" y="115.437">G</text>
      <text x="69.969" y="116.460">C</text>
      <text x="76.323" y="130.260">A</text>
      <text x="88.541" y="139.288">C</text>
      <text x="86.498" y="154.148">U</text>
      <text x="84.456" y="169.009">A</text>
      <text x="82.413" y="183.869">G</text>
      <text x="80.371" y="198.729">C</text>
      <text x="67.039" y="206.902">C</text>
      <text x="62.129" y="221.749">U</text>
      <text x="67.959" y="236.259">U</text>
      <text x="81.777" y="243.581">U</text>
      <text x="97.057" y="240.259">U</text>
      <text x="106.586" y="227.859">A</text>
      <text x="105.863" y="212.239">A</text>
      <text x="95.231" y="200.772">G</text>
      <text x="97.274" y="185.911">C</text>
      <text x="99.316" y="171.051">U</text>
      <text x="101.359" y="156.191">A</text>
      <text x="103.401" y="141.330">G</text>
      <text x="113.928" y="139.363">A</text>
      <text x="123.469" y="133.736">G</text>
      <text x="130.755" y="124.910">A</text>
      <text x="134.721" y="113.782">A</text>
      <text x="134.659" y="101.601">G</text>
      <text x="149.562" y="99.898">A</text>
      <text x="164.465" y="98.194">G</text>
      <text x="179.368" y="96.490">G</text>
      <text x="194.271" y="94.786">G</text>
      <text x="207.674" y="103.603">C</text>
      <text x="222.879" y="98.484">A</text>
      <text x="228.221" y="83.356">C</text>
      <text x="219.603" y="69.825">U</text>
      <text x="203.635" y="68.270">C</text>
      <text x="192.567" y="79.884">C</text>
      <text x="177.664" y="81.587">C</text>
      <text x="162.761" y="83.291">C</text>
      <text x="147.859" y="84.995">U</text>
      <text x="132.956" y="86.698">C</text>
      <text x="121.993" y="76.460">C</text>
      <text x="122.676" y="61.476">U</text>
      <text x="123.358" y="46.491">U</text>
      <text x="124.041" y="31.507">A</text>
      <text x="124.724" y="16.522">A</text>
      <text x="125.407" y="1.538">U</text>
      <text x="126.089" y="-13.447">G</text>
      <text x="129.154" y="-32.585">A</text>
    </g>
  </g>
</svg>
