<?xml version="1.0" encoding="UTF-8" standalone="yes"?>
<svg xmlns="http://www.w3.org/2000/svg" height="452" width="452">
<script type="text/ecmascript">
      <![CDATA[
        var shown = 1;
        function click() {
             var seq = document.getElementById("seq");
             if (shown==1) {
               seq.setAttribute("style", "visibility: hidden");
               shown = 0;
             } else {
               seq.setAttribute("style", "visibility: visible");
               shown = 1;
             }
         }
        ]]>
</script>
  <rect style="stroke: white; fill: white" height="452" x="0" y="0" width="452" onclick="click(evt)" />
  <g transform="scale(1.614821,1.614821) translate(25.072525,35.362946)">
    <polyline style="stroke: black; fill: none; stroke-width: 1.5" id="outline" points="
      111.471,-11.863
      110.825,3.123
      110.180,18.109
      109.535,33.095
      101.257,45.478
      108.394,59.598
      107.748,74.584
      91.437,76.604
      78.613,85.493
      71.777,98.589
      56.864,96.979
      41.951,95.368
      35.144,81.523
      21.921,73.576
      6.501,74.062
      -6.195,82.826
      -12.116,97.072
      -9.373,112.254
      1.159,123.527
      16.119,127.294
      30.734,122.353
      40.340,110.281
      55.253,111.892
      70.166,113.503
      75.536,126.795
      86.439,136.104
      83.236,150.758
      80.033,165.412
      76.830,180.066
      73.628,194.720
      59.695,201.821
      53.635,216.237
      58.308,231.160
      71.508,239.544
      87.002,237.431
      97.475,225.818
      97.981,210.189
      88.282,197.923
      91.484,183.269
      94.687,168.615
      97.890,153.960
      101.093,139.306
      111.909,138.026
      121.920,132.862
      129.736,124.238
      134.171,113.074
      134.422,100.690
      149.391,99.723
      164.360,98.755
      179.328,97.788
      194.297,96.820
      204.105,108.845
      219.116,112.775
      233.558,107.101
      241.878,94.003
      240.877,78.518
      230.940,66.601
      215.887,62.833
      201.507,68.664
      193.329,81.851
      178.361,82.819
      163.392,83.786
      148.423,84.754
      133.454,85.722
      122.734,75.230
      123.380,60.244
      131.704,46.789
      124.521,33.741
      125.166,18.755
      125.812,3.769
      126.457,-11.218
      129.474,-30.363
    " />
    <g style="stroke: black; stroke-width: 1" id="pairs">
      <line id="1,71" x1="111.471" y1="-11.863" x2="126.457" y2="-11.218" />
      <line id="2,70" x1="110.825" y1=" 3.123" x2="125.812" y2=" 3.769" />
      <line id="3,69" x1="110.180" y1="18.109" x2="125.166" y2="18.755" />
      <line id="4,68" x1="109.535" y1="33.095" x2="124.521" y2="33.741" />
      <line id="6,66" x1="108.394" y1="59.598" x2="123.380" y2="60.244" />
      <line id="7,65" x1="107.748" y1="74.584" x2="122.734" y2="75.230" />
      <line id="10,24" x1="71.777" y1="98.589" x2="70.166" y2="113.503" />
      <line id="11,23" x1="56.864" y1="96.979" x2="55.253" y2="111.892" />
      <line id="12,22" x1="41.951" y1="95.368" x2="40.340" y2="110.281" />
      <line id="26,42" x1="86.439" y1="136.104" x2="101.093" y2="139.306" />
      <line id="27,41" x1="83.236" y1="150.758" x2="97.890" y2="153.960" />
      <line id="28,40" x1="80.033" y1="165.412" x2="94.687" y2="168.615" />
      <line id="29,39" x1="76.830" y1="180.066" x2="91.484" y2="183.269" />
      <line id="30,38" x1="73.628" y1="194.720" x2="88.282" y2="197.923" />
      <line id="47,64" x1="134.422" y1="100.690" x2="133.454" y2="85.722" />
      <line id="48,63" x1="149.391" y1="99.723" x2="148.423" y2="84.754" />
      <line id="49,62" x1="164.360" y1="98.755" x2="163.392" y2="83.786" />
      <line id="50,61" x1="179.328" y1="97.788" x2="178.361" y2="82.819" />
      <line id="51,60" x1="194.297" y1="96.820" x2="193.329" y2="81.851" />
    </g>
    <g style="font-family: SansSerif" transform="translate(-4.6, 4)" id="seq">
      <text x="111.471" y="-11.863">C</text>
      <text x="110.825" y="3.123">A</text>
      <text x="110.180" y="18.109">A</text>
      <text x="109.535" y="33.095">G</text>
      <text x="101.257" y="45.478">A</text>
      <text x="108.394" y="59.598">C</text>
      <text x="107.748" y="74.584">G</text>
      <text x="91.437" y="76.604">U</text>
      <text x="78.613" y="85.493">A</text>
      <text x="71.777" y="98.589">G</text>
      <text x="56.864" y="96.979">C</text>
      <text x="41.951" y="95.368">U</text>
      <text x="35.144" y="81.523">A</text>
      <text x="21.921" y="73.576">U</text>
      <text x="6.501" y="74.062">A</text>
      <text x="-6.195" y="82.826">A</text>
      <text x="-12.116" y="97.072">C</text>
      <text x="-9.373" y="112.254">C</text>
      <text x="1.159" y="123.527">C</text>
      <text x="16.119" y="127.294">A</text>
      <text x="30.734" y="122.353">A</text>
      <text x="40.340" y="110.281">A</text>
      <text x="55.253" y="111.892">G</text>
      <text x="70.166" y="113.503">C</text>
      <text x="75.536" y="126.795">A</text>
      <text x="86.439" y="136.104">U</text>
      <text x="83.236" y="150.758">U</text>
      <text x="80.033" y="165.412">C</text>
      <text x="76.830" y="180.066">A</text>
      <text x="73.628" y="194.720">G</text>
      <text x="59.695" y="201.821">C</text>
      <text x="53.635" y="216.237">U</text>
      <text x="58.308" y="231.160">U</text>
      <text x="71.508" y="239.544">A</text>
      <text x="87.002" y="237.431">C</text>
      <text x="97.475" y="225.818">A</text>
      <text x="97.981" y="210.189">C</text>
      <text x="88.282" y="197.923">C</text>
      <text x="91.484" y="183.269">U</text>
      <text x="94.687" y="168.615">G</text>
      <text x="97.890" y="153.960">A</text>
      <text x="101.093" y="139.306">A</text>
      <text x="111.909" y="138.026">A</text>
      <text x="121.920" y="132.862">G</text>
      <text x="129.736" y="124.238">A</text>
      <text x="134.171" y="113.074">U</text>
      <text x="134.422" y="100.690">A</text>
      <text x="149.391" y="99.723">U</text>
      <text x="164.360" y="98.755">C</text>
      <text x="179.328" y="97.788">U</text>
      <text x="194.297" y="96.820">C</text>
      <text x="204.105" y="108.845">C</text>
      <text x="219.116" y="112.775">C</text>
      <text x="233.558" y="107.101">C</text>
      <text x="241.878" y="94.003">U</text>
      <text x="240.877" y="78.518">A</text>
      <text x="230.940" y="66.601">A</text>
      <text x="215.887" y="62.833">A</text>
      <text x="201.507" y="68.664">C</text>
      <text x="193.329" y="81.851">G</text>
      <text x="178.361" y="82.819">A</text>
      <text x="163.392" y="83.786">G</text>
      <text x="148.423" y="84.754">A</text>
      <text x="133.454" y="85.722">U</text>
      <text x="122.734" y="75.230">C</text>
      <text x="123.380" y="60.244">G</text>
      <text x="131.704" y="46.789">C</text>
      <text x="124.521" y="33.741">C</text>
      <text x="125.166" y="18.755">U</text>
      <text x="125.812" y="3.769">U</text>
      <text x="126.457" y="-11.218">G</text>
      <text x="129.474" y="-30.363">A</text>
    </g>
  </g>
</svg>
