<?xml version="1.0" encoding="UTF-8" standalone="yes"?>
<svg xmlns="http://www.w3.org/2000/svg" height="452" width="452">
<script type="text/ecmascript">
      <![CDATA[
        var shown = 1;
        function click() {
             var seq = document.getElementById("seq");
             if (shown==1) {
               seq.setAttribute("style", "visibility: hidden");
               shown = 0;
             } else {
               seq.setAttribute("style", "visibility: visible");
               shown = 1;
             }
         }
        ]]>
</script>
  <rect style="stroke: white; fill: white" height="452" x="0" y="0" width="452" onclick="click(evt)" />
  <g transform="scale(1.564940,1.564940) translate(48.588036,39.019592)">
    <polyline style="stroke: black; fill: none; stroke-width: 1.5" id="outline" points="
      108.815,-15.039
      108.211,-0.052
      107.607,14.936
      107.003,29.924
      106.399,44.912
      105.795,59.900
      105.191,74.888
      87.905,78.564
      75.284,89.585
      69.942,104.495
      54.954,105.099
      40.853,97.924
      28.448,106.167
      21.736,92.497
      10.041,82.743
      -4.612,78.596
      -19.685,80.774
      -32.565,88.900
      -41.021,101.565
      -43.588,116.576
      -39.821,131.332
      -30.374,143.276
      -16.881,150.339
      -1.683,151.297
      12.589,145.984
      23.462,135.321
      29.052,121.155
      42.080,128.374
      55.558,120.087
      70.546,119.483
      79.635,133.777
      94.921,141.077
      96.128,156.029
      97.335,170.980
      98.542,185.931
      99.749,200.883
      88.491,211.736
      86.895,227.292
      95.714,240.205
      110.784,244.379
      124.990,237.842
      131.624,223.681
      127.553,208.583
      114.700,199.676
      113.493,184.724
      112.286,169.773
      111.079,154.822
      109.872,139.870
      118.926,136.374
      126.725,130.041
      132.378,121.326
      135.162,110.964
      134.605,99.907
      149.302,96.907
      163.998,93.906
      178.695,90.906
      193.392,87.906
      205.523,97.773
      221.158,97.482
      232.914,87.171
      235.241,71.707
      227.039,58.393
      212.182,53.515
      197.685,59.376
      190.392,73.209
      175.695,76.209
      160.998,79.210
      146.301,82.210
      131.604,85.210
      120.179,75.492
      120.783,60.504
      121.387,45.516
      121.991,30.528
      122.595,15.540
      123.199,0.552
      123.803,-14.435
      126.767,-33.589
    " />
    <g style="stroke: black; stroke-width: 1" id="pairs">
      <line id="1,76" x1="108.815" y1="-15.039" x2="123.803" y2="-14.435" />
      <line id="2,75" x1="108.211" y1="-0.052" x2="123.199" y2=" 0.552" />
      <line id="3,74" x1="107.607" y1="14.936" x2="122.595" y2="15.540" />
      <line id="4,73" x1="107.003" y1="29.924" x2="121.991" y2="30.528" />
      <line id="5,72" x1="106.399" y1="44.912" x2="121.387" y2="45.516" />
      <line id="6,71" x1="105.795" y1="59.900" x2="120.783" y2="60.504" />
      <line id="7,70" x1="105.191" y1="74.888" x2="120.179" y2="75.492" />
      <line id="10,30" x1="69.942" y1="104.495" x2="70.546" y2="119.483" />
      <line id="11,29" x1="54.954" y1="105.099" x2="55.558" y2="120.087" />
      <line id="13,27" x1="28.448" y1="106.167" x2="29.052" y2="121.155" />
      <line id="32,48" x1="94.921" y1="141.077" x2="109.872" y2="139.870" />
      <line id="33,47" x1="96.128" y1="156.029" x2="111.079" y2="154.822" />
      <line id="34,46" x1="97.335" y1="170.980" x2="112.286" y2="169.773" />
      <line id="35,45" x1="98.542" y1="185.931" x2="113.493" y2="184.724" />
      <line id="36,44" x1="99.749" y1="200.883" x2="114.700" y2="199.676" />
      <line id="53,69" x1="134.605" y1="99.907" x2="131.604" y2="85.210" />
      <line id="54,68" x1="149.302" y1="96.907" x2="146.301" y2="82.210" />
      <line id="55,67" x1="163.998" y1="93.906" x2="160.998" y2="79.210" />
      <line id="56,66" x1="178.695" y1="90.906" x2="175.695" y2="76.209" />
      <line id="57,65" x1="193.392" y1="87.906" x2="190.392" y2="73.209" />
    </g>
    <g style="font-family: SansSerif" transform="translate(-4.6, 4)" id="seq">
      <text x="108.815" y="-15.039">A</text>
      <text x="108.211" y="-0.052">G</text>
      <text x="107.607" y="14.936">A</text>
      <text x="107.003" y="29.924">A</text>
      <text x="106.399" y="44.912">A</text>
      <text x="105.795" y="59.900">C</text>
      <text x="105.191" y="74.888">U</text>
      <text x="87.905" y="78.564">U</text>
      <text x="75.284" y="89.585">A</text>
      <text x="69.942" y="104.495">G</text>
      <text x="54.954" y="105.099">G</text>
      <text x="40.853" y="97.924">A</text>
      <text x="28.448" y="106.167">U</text>
      <text x="21.736" y="92.497">U</text>
      <text x="10.041" y="82.743">A</text>
      <text x="-4.612" y="78.596">A</text>
      <text x="-19.685" y="80.774">C</text>
      <text x="-32.565" y="88.900">C</text>
      <text x="-41.021" y="101.565">C</text>
      <text x="-43.588" y="116.576">G</text>
      <text x="-39.821" y="131.332">C</text>
      <text x="-30.374" y="143.276">C</text>
      <text x="-16.881" y="150.339">G</text>
      <text x="-1.683" y="151.297">C</text>
      <text x="12.589" y="145.984">C</text>
      <text x="23.462" y="135.321">A</text>
      <text x="29.052" y="121.155">A</text>
      <text x="42.080" y="128.374">A</text>
      <text x="55.558" y="120.087">C</text>
      <text x="70.546" y="119.483">C</text>
      <text x="79.635" y="133.777">A</text>
      <text x="94.921" y="141.077">A</text>
      <text x="96.128" y="156.029">A</text>
      <text x="97.335" y="170.980">G</text>
      <text x="98.542" y="185.931">G</text>
      <text x="99.749" y="200.883">C</text>
      <text x="88.491" y="211.736">C</text>
      <text x="86.895" y="227.292">U</text>
      <text x="95.714" y="240.205">U</text>
      <text x="110.784" y="244.379">C</text>
      <text x="124.990" y="237.842">A</text>
      <text x="131.624" y="223.681">A</text>
      <text x="127.553" y="208.583">A</text>
      <text x="114.700" y="199.676">G</text>
      <text x="113.493" y="184.724">C</text>
      <text x="112.286" y="169.773">C</text>
      <text x="111.079" y="154.822">U</text>
      <text x="109.872" y="139.870">U</text>
      <text x="118.926" y="136.374">A</text>
      <text x="126.725" y="130.041">A</text>
      <text x="132.378" y="121.326">A</text>
      <text x="135.162" y="110.964">U</text>
      <text x="134.605" y="99.907">A</text>
      <text x="149.302" y="96.907">A</text>
      <text x="163.998" y="93.906">G</text>
      <text x="178.695" y="90.906">A</text>
      <text x="193.392" y="87.906">G</text>
      <text x="205.523" y="97.773">U</text>
      <text x="221.158" y="97.482">U</text>
      <text x="232.914" y="87.171">A</text>
      <text x="235.241" y="71.707">A</text>
      <text x="227.039" y="58.393">A</text>
      <text x="212.182" y="53.515">U</text>
      <text x="197.685" y="59.376">U</text>
      <text x="190.392" y="73.209">C</text>
      <text x="175.695" y="76.209">U</text>
      <text x="160.998" y="79.210">C</text>
      <text x="146.301" y="82.210">U</text>
      <text x="131.604" y="85.210">U</text>
      <text x="120.179" y="75.492">A</text>
      <text x="120.783" y="60.504">G</text>
      <text x="121.387" y="45.516">U</text>
      <text x="121.991" y="30.528">U</text>
      <text x="122.595" y="15.540">U</text>
      <text x="123.199" y="0.552">C</text>
      <text x="123.803" y="-14.435">U</text>
      <text x="126.767" y="-33.589">G</text>
    </g>
  </g>
</svg>
