<?xml version="1.0" encoding="UTF-8" standalone="yes"?>
<svg xmlns="http://www.w3.org/2000/svg" height="452" width="452">
<script type="text/ecmascript">
      <![CDATA[
        var shown = 1;
        function click() {
             var seq = document.getElementById("seq");
             if (shown==1) {
               seq.setAttribute("style", "visibility: hidden");
               shown = 0;
             } else {
               seq.setAttribute("style", "visibility: visible");
               shown = 1;
             }
         }
        ]]>
</script>
  <rect style="stroke: white; fill: white" height="452" x="0" y="0" width="452" onclick="click(evt)" />
  <g transform="scale(1.699197,1.699197) translate(22.227394,22.270020)">
    <polyline style="stroke: black; fill: none; stroke-width: 1.5" id="outline" points="
      108.233,-7.207
      108.233,7.793
      108.233,22.793
      108.233,37.793
      108.233,52.793
      108.233,67.793
      108.233,82.793
      89.184,85.104
      74.241,95.840
      66.657,111.735
      51.690,110.740
      36.723,109.745
      29.352,96.193
      15.813,88.797
      0.426,89.918
      -11.898,99.198
      -17.227,113.676
      -13.861,128.732
      -2.874,139.561
      12.229,142.709
      26.628,137.170
      35.728,124.712
      50.695,125.707
      65.662,126.702
      68.264,135.585
      73.120,143.466
      79.884,149.784
      88.077,154.092
      86.092,168.960
      84.107,183.828
      70.806,192.052
      65.954,206.918
      71.839,221.406
      85.685,228.675
      100.952,225.293
      110.433,212.857
      109.651,197.239
      98.975,185.813
      100.960,170.945
      102.945,156.077
      112.121,154.751
      120.792,150.989
      128.311,144.969
      134.093,137.040
      137.655,127.704
      138.659,117.579
      136.942,107.368
      151.762,105.054
      166.583,102.741
      181.403,100.427
      196.224,98.113
      207.883,108.534
      223.515,108.971
      235.738,99.217
      238.781,83.879
      231.207,70.197
      216.593,64.633
      201.838,69.814
      193.910,83.293
      179.090,85.606
      164.269,87.920
      149.449,90.234
      134.628,92.548
      123.233,82.793
      123.233,67.793
      123.233,52.793
      123.233,37.793
      123.233,22.793
      123.233,7.793
      123.233,-7.207
    " />
    <g style="stroke: black; stroke-width: 1" id="pairs">
      <line id="1,70" x1="108.233" y1="-7.207" x2="123.233" y2="-7.207" />
      <line id="2,69" x1="108.233" y1=" 7.793" x2="123.233" y2=" 7.793" />
      <line id="3,68" x1="108.233" y1="22.793" x2="123.233" y2="22.793" />
      <line id="4,67" x1="108.233" y1="37.793" x2="123.233" y2="37.793" />
      <line id="5,66" x1="108.233" y1="52.793" x2="123.233" y2="52.793" />
      <line id="6,65" x1="108.233" y1="67.793" x2="123.233" y2="67.793" />
      <line id="7,64" x1="108.233" y1="82.793" x2="123.233" y2="82.793" />
      <line id="10,24" x1="66.657" y1="111.735" x2="65.662" y2="126.702" />
      <line id="11,23" x1="51.690" y1="110.740" x2="50.695" y2="125.707" />
      <line id="12,22" x1="36.723" y1="109.745" x2="35.728" y2="124.712" />
      <line id="28,40" x1="88.077" y1="154.092" x2="102.945" y2="156.077" />
      <line id="29,39" x1="86.092" y1="168.960" x2="100.960" y2="170.945" />
      <line id="30,38" x1="84.107" y1="183.828" x2="98.975" y2="185.813" />
      <line id="47,63" x1="136.942" y1="107.368" x2="134.628" y2="92.548" />
      <line id="48,62" x1="151.762" y1="105.054" x2="149.449" y2="90.234" />
      <line id="49,61" x1="166.583" y1="102.741" x2="164.269" y2="87.920" />
      <line id="50,60" x1="181.403" y1="100.427" x2="179.090" y2="85.606" />
      <line id="51,59" x1="196.224" y1="98.113" x2="193.910" y2="83.293" />
    </g>
    <g style="font-family: SansSerif" transform="translate(-4.6, 4)" id="seq">
      <text x="108.233" y="-7.207">G</text>
      <text x="108.233" y="7.793">G</text>
      <text x="108.233" y="22.793">U</text>
      <text x="108.233" y="37.793">A</text>
      <text x="108.233" y="52.793">A</text>
      <text x="108.233" y="67.793">G</text>
      <text x="108.233" y="82.793">A</text>
      <text x="89.184" y="85.104">U</text>
      <text x="74.241" y="95.840">G</text>
      <text x="66.657" y="111.735">G</text>
      <text x="51.690" y="110.740">C</text>
      <text x="36.723" y="109.745">U</text>
      <text x="29.352" y="96.193">G</text>
      <text x="15.813" y="88.797">A</text>
      <text x="0.426" y="89.918">G</text>
      <text x="-11.898" y="99.198">U</text>
      <text x="-17.227" y="113.676">G</text>
      <text x="-13.861" y="128.732">U</text>
      <text x="-2.874" y="139.561">C</text>
      <text x="12.229" y="142.709">A</text>
      <text x="26.628" y="137.170">A</text>
      <text x="35.728" y="124.712">A</text>
      <text x="50.695" y="125.707">G</text>
      <text x="65.662" y="126.702">C</text>
      <text x="68.264" y="135.585">G</text>
      <text x="73.120" y="143.466">U</text>
      <text x="79.884" y="149.784">U</text>
      <text x="88.077" y="154.092">A</text>
      <text x="86.092" y="168.960">G</text>
      <text x="84.107" y="183.828">G</text>
      <text x="70.806" y="192.052">C</text>
      <text x="65.954" y="206.918">U</text>
      <text x="71.839" y="221.406">G</text>
      <text x="85.685" y="228.675">U</text>
      <text x="100.952" y="225.293">A</text>
      <text x="110.433" y="212.857">G</text>
      <text x="109.651" y="197.239">U</text>
      <text x="98.975" y="185.813">C</text>
      <text x="100.960" y="170.945">C</text>
      <text x="102.945" y="156.077">U</text>
      <text x="112.121" y="154.751">U</text>
      <text x="120.792" y="150.989">U</text>
      <text x="128.311" y="144.969">U</text>
      <text x="134.093" y="137.040">U</text>
      <text x="137.655" y="127.704">A</text>
      <text x="138.659" y="117.579">C</text>
      <text x="136.942" y="107.368">A</text>
      <text x="151.762" y="105.054">G</text>
      <text x="166.583" y="102.741">A</text>
      <text x="181.403" y="100.427">G</text>
      <text x="196.224" y="98.113">G</text>
      <text x="207.883" y="108.534">U</text>
      <text x="223.515" y="108.971">U</text>
      <text x="235.738" y="99.217">C</text>
      <text x="238.781" y="83.879">A</text>
      <text x="231.207" y="70.197">A</text>
      <text x="216.593" y="64.633">U</text>
      <text x="201.838" y="69.814">U</text>
      <text x="193.910" y="83.293">C</text>
      <text x="179.090" y="85.606">C</text>
      <text x="164.269" y="87.920">U</text>
      <text x="149.449" y="90.234">C</text>
      <text x="134.628" y="92.548">U</text>
      <text x="123.233" y="82.793">U</text>
      <text x="123.233" y="67.793">C</text>
      <text x="123.233" y="52.793">U</text>
      <text x="123.233" y="37.793">U</text>
      <text x="123.233" y="22.793">A</text>
      <text x="123.233" y="7.793">U</text>
      <text x="123.233" y="-7.207">C</text>
    </g>
  </g>
</svg>
